<?xml version="1.0" encoding="UTF-8"?>
<svg id="Layer_1" xmlns="http://www.w3.org/2000/svg" xmlns:xlink="http://www.w3.org/1999/xlink" version="1.1" width="2292.2" height="1460.4" viewBox="-300 -300 2292.2 1460.4">
  <!-- Generator: Adobe Illustrator 29.7.1, SVG Export Plug-In . SVG Version: 2.1.1 Build 8)  -->
  <defs>
    <style>
      .st0 {
        fill: url(#linear-gradient10);
      }

      .st0, .st1, .st2, .st3, .st4, .st5, .st6, .st7, .st8, .st9, .st10 {
        fill-rule: evenodd;
      }

      .st11 {
        stroke: #167097;
        stroke-width: 39px;
      }

      .st11, .st12 {
        stroke-linecap: round;
        stroke-linejoin: round;
      }

      .st11, .st12, .st13 {
        fill: none;
      }

      .st14 {
        isolation: isolate;
      }

      .st14, .st15 {
        opacity: .2;
      }

      .st12 {
        stroke: #26b6f6;
        stroke-width: 21.2px;
      }

      .st16 {
        fill: url(#linear-gradient13);
      }

      .st17 {
        fill: url(#linear-gradient12);
      }

      .st18 {
        fill: url(#linear-gradient11);
      }

      .st19 {
        fill: url(#linear-gradient14);
      }

      .st13 {
        stroke: #65abff;
        stroke-width: 7.2px;
      }

      .st20 {
        fill: #6eb2ff;
      }

      .st21 {
        fill: #fff;
      }

      .st1 {
        fill: url(#linear-gradient);
      }

      .st2 {
        fill: url(#linear-gradient1);
      }

      .st3 {
        fill: url(#linear-gradient2);
      }

      .st4 {
        fill: url(#linear-gradient8);
      }

      .st5 {
        fill: url(#linear-gradient7);
      }

      .st6 {
        fill: url(#linear-gradient4);
      }

      .st7 {
        fill: url(#linear-gradient5);
      }

      .st8 {
        fill: url(#linear-gradient3);
      }

      .st9 {
        fill: url(#linear-gradient6);
      }

      .st10 {
        fill: url(#linear-gradient9);
      }
    </style>
    <linearGradient id="linear-gradient" x1="465.2" y1="555.8" x2="465.2" y2="845" gradientUnits="userSpaceOnUse">
      <stop offset="0" stop-color="#fff"/>
      <stop offset=".5" stop-color="#fcfcfc"/>
      <stop offset=".8" stop-color="#f5f5f5"/>
      <stop offset="1" stop-color="#e8e8e8"/>
      <stop offset="1" stop-color="#e6e6e6"/>
    </linearGradient>
    <linearGradient id="linear-gradient1" x1="618.3" y1="638.3" x2="618.3" y2="817.3" xlink:href="#linear-gradient"/>
    <linearGradient id="linear-gradient2" x1="792.9" y1="602.5" x2="792.9" y2="847.7" xlink:href="#linear-gradient"/>
    <linearGradient id="linear-gradient3" x1="932" y1="488.4" x2="932" y2="753.9" xlink:href="#linear-gradient"/>
    <linearGradient id="linear-gradient4" x1="1081.9" y1="610" x2="1081.9" y2="787.4" xlink:href="#linear-gradient"/>
    <linearGradient id="linear-gradient5" x1="1249.4" y1="616.9" x2="1249.4" y2="795.9" xlink:href="#linear-gradient"/>
    <linearGradient id="linear-gradient6" x1="1422.5" y1="573.5" x2="1422.5" y2="816" xlink:href="#linear-gradient"/>
    <linearGradient id="linear-gradient7" x1="1588.1" y1="490.8" x2="1588.1" y2="588.8" gradientUnits="userSpaceOnUse">
      <stop offset="0" stop-color="#fff"/>
      <stop offset=".5" stop-color="#fcfcfc"/>
      <stop offset=".8" stop-color="#f5f5f5"/>
      <stop offset="1" stop-color="#e8e8e8"/>
      <stop offset="1" stop-color="#e6e6e6"/>
    </linearGradient>
    <linearGradient id="linear-gradient8" x1="1565.7" y1="599.9" x2="1565.7" y2="762.1" gradientUnits="userSpaceOnUse">
      <stop offset="0" stop-color="#fff"/>
      <stop offset=".5" stop-color="#fcfcfc"/>
      <stop offset=".8" stop-color="#f5f5f5"/>
      <stop offset="1" stop-color="#e8e8e8"/>
      <stop offset="1" stop-color="#e6e6e6"/>
    </linearGradient>
    <linearGradient id="linear-gradient9" x1="1694.3" y1="616.6" x2="1694.3" y2="807.4" xlink:href="#linear-gradient8"/>
    <linearGradient id="linear-gradient10" x1="1854.8" y1="651.9" x2="1854.8" y2="844.5" xlink:href="#linear-gradient8"/>
    <linearGradient id="linear-gradient11" x1="893.6" y1="-838.1" x2="893.6" y2="-518.5" gradientTransform="translate(0 1620.7)" xlink:href="#linear-gradient"/>
    <linearGradient id="linear-gradient12" x1="1064.5" y1="-668.7" x2="1064.5" y2="-373.3" gradientTransform="translate(-8 1636.2) rotate(-1.8) scale(1 1.1) skewX(-1.6)" gradientUnits="userSpaceOnUse">
      <stop offset="0" stop-color="#fff"/>
      <stop offset=".5" stop-color="#fcfcfc"/>
      <stop offset=".8" stop-color="#f5f5f5"/>
      <stop offset="1" stop-color="#e8e8e8"/>
      <stop offset="1" stop-color="#e6e6e6"/>
    </linearGradient>
    <linearGradient id="linear-gradient13" x1="1175.7" y1="-749.8" x2="1175.7" y2="-532.6" gradientTransform="translate(0 1620.7)" xlink:href="#linear-gradient8"/>
    <linearGradient id="linear-gradient14" x1="1434.2" y1="-907.3" x2="1434.2" y2="-577.1" gradientTransform="translate(-24.3 1709.1) rotate(-1.6)" xlink:href="#linear-gradient7"/>
  </defs>
  <g id="logo">
    <g data-animate="logo-part">
      <path class="st14" d="M582.3,635.9c-2.7-15.9-8-29-15.8-39.1s-17.4-18-28.7-23.4c-11.1-5.2-23.3-8.3-36.5-9.2l-8-.3c-10.2-.2-20.6.6-31.1,2.3l-4.4.8-4.8,1.1c-16.6,3.5-32.9,7-48.3,10.6l-48.4,11.4c-2.4.6-4.3,2-5.6,4-1.3,2.1-1.7,4.4-1.2,6.9l57.8,252.2c.5,2.4,1.9,4.4,4.1,5.7,1.3.8,2.8,1.3,4.5,1.4h.3l1.9-.2,83.4-19.8c2.4-.5,4.4-2,5.7-4.1s1.7-4.5,1.1-6.9l-21.3-87.7c7.2-1.8,14.6-4.1,21.8-6.7,10.4-3.7,20.4-8.7,29.6-14.7,9.4-6.1,17.6-13.5,24.6-21.9,7.3-8.7,12.8-19.1,16.3-30.8l1.7-7c.6-2.5,1-5.3,1.3-8.2.2-2.5.4-5.3.4-8.1s-.2-5.6-.6-8.1h0l.2-.2ZM482.9,643.9c1.8,1.1,3.6,2.8,5.2,5l1.8,2.4c0,.1.2.6.4,1.4v.2c.7,3.2.5,5.8-.4,8.2-1.2,3-3,5.7-5.4,8.1-2.4,2.5-5.4,4.7-8.9,6.7l-1.9.9-8.5-36.2,3.1-.2h.8l7.3.8c2.3.6,4.5,1.5,6.5,2.6h0Z"/>
      <path class="st1" d="M578.3,632.1c0,2.7-.1,5.3-.4,7.8-.3,2.7-.7,5.3-1.2,7.8l-1.6,6.8c-3.4,11.3-8.6,21.2-15.6,29.6-6.8,8.2-14.8,15.2-23.9,21.2-9.1,5.9-18.7,10.7-28.9,14.3-8.3,3-16.6,5.5-24.9,7.5l22.1,91.2c.3,1.5.1,2.9-.7,4.2s-1.9,2.1-3.4,2.5l-83.2,19.8-1.4.2c-1.1,0-2.1-.3-2.9-.8-1.3-.8-2.1-2-2.4-3.5l-57.8-252.2c-.3-1.5,0-2.9.7-4.2s1.9-2.1,3.4-2.5l48.4-11.3c15.5-3.6,31.5-7.1,48.2-10.5l4.7-1.1,4.4-.8c10.2-1.7,20.3-2.5,30.4-2.2l7.9.3c12.7.9,24.4,3.8,35.1,8.8,10.8,5.2,20,12.6,27.4,22.3,7.5,9.7,12.5,22.2,15.1,37.5.4,2.3.6,4.8.6,7.5M475.8,625.9l-7.8-.9h-1.1l-7.4.5,10.5,44.6,5.9-2.9c3.9-2.1,7.2-4.6,9.9-7.3,2.7-2.7,4.8-5.8,6.1-9.2,1.2-3,1.4-6.5.6-10.3-.2-1.3-.5-2.2-.9-2.8l-1.9-2.6c-1.9-2.6-4-4.6-6.3-6-2.4-1.4-4.9-2.4-7.7-3"/>
      <path class="st13" d="M578.3,632.1c0,2.7-.1,5.3-.4,7.8-.3,2.7-.7,5.3-1.2,7.8l-1.6,6.8c-3.4,11.3-8.6,21.2-15.6,29.6-6.8,8.2-14.8,15.2-23.9,21.2-9.1,5.9-18.7,10.7-28.9,14.3-8.3,3-16.6,5.5-24.9,7.5l22.1,91.2c.3,1.5.1,2.9-.7,4.2s-1.9,2.1-3.4,2.5l-83.2,19.8-1.4.2c-1.1,0-2.1-.3-2.9-.8-1.3-.8-2.1-2-2.4-3.5l-57.8-252.2c-.3-1.5,0-2.9.7-4.2s1.9-2.1,3.4-2.5l48.4-11.3c15.5-3.6,31.5-7.1,48.2-10.5l4.7-1.1,4.4-.8c10.2-1.7,20.3-2.5,30.4-2.2l7.9.3c12.7.9,24.4,3.8,35.1,8.8,10.8,5.2,20,12.6,27.4,22.3,7.5,9.7,12.5,22.2,15.1,37.5.4,2.3.6,4.8.6,7.5M475.8,625.9l-7.8-.9h-1.1l-7.4.5,10.5,44.6,5.9-2.9c3.9-2.1,7.2-4.6,9.9-7.3,2.7-2.7,4.8-5.8,6.1-9.2,1.2-3,1.4-6.5.6-10.3-.2-1.3-.5-2.2-.9-2.8l-1.9-2.6c-1.9-2.6-4-4.6-6.3-6-2.4-1.4-4.9-2.4-7.7-3h0Z"/>
    </g>
    <g data-animate="logo-part">
      <path class="st14" d="M708.4,702.6c-5.3-11.3-12.4-21.2-21.3-29.5-8.8-8.1-19.1-14.6-30.7-19.3-11.6-4.7-24-7.1-36.9-7.1s-25.3,2.4-36.9,7.1c-11.8,4.8-22.2,11.3-30.8,19.5-8.8,8.2-16,18.1-21.2,29.4-5.3,11.3-8,23.9-8,37.3s2.7,25.8,8,37c5.1,11.1,12.3,21,21.2,29.4,8.9,8.3,19.3,14.8,30.9,19.3,11.6,4.7,24.1,7,36.9,7s25.3-2.4,36.8-7c11.6-4.6,21.9-11.2,30.8-19.4,8.9-8.3,16-18.2,21.2-29.4,5.3-11.3,8-23.7,8-37.1s-2.7-25.9-8-37.3h0ZM632.9,729.7c1.4,1.3,2.5,2.8,3.3,4.7h0c.8,1.7,1.2,3.5,1.2,5.5s-.4,3.7-1.2,5.2h0c-.8,2-1.9,3.5-3.3,4.8h-.1c-1.3,1.4-3,2.5-5,3.3-1.9.8-3.8,1.2-5.9,1.2s-4.2-.4-6.1-1.2c-1.8-.7-3.6-1.8-5.1-3.3-1.4-1.3-2.4-2.8-3.3-4.6-.8-1.7-1.1-3.5-1.1-5.4s.4-3.9,1.2-5.6c.8-1.7,1.9-3.3,3.2-4.5,1.4-1.3,3.2-2.4,5.2-3.3,1.9-.8,3.9-1.2,6-1.2s4,.4,5.9,1.2c1.9.8,3.6,1.9,5,3.2h0Z"/>
      <path class="st2" d="M704,763.5c-5,10.8-11.9,20.3-20.4,28.3-8.5,7.9-18.4,14.2-29.6,18.7s-23,6.8-35.5,6.8-24.3-2.2-35.6-6.8c-11.2-4.4-21.1-10.7-29.8-18.7-8.6-8.1-15.4-17.5-20.4-28.3-5.1-10.8-7.7-22.7-7.7-35.5s2.6-24.9,7.7-35.8c5.1-10.9,11.9-20.4,20.4-28.3,8.4-7.9,18.3-14.1,29.8-18.8,11.3-4.5,23.2-6.8,35.6-6.8s24.3,2.3,35.5,6.8c11.3,4.6,21.2,10.8,29.6,18.7,8.5,8,15.4,17.5,20.4,28.4,5.1,11,7.6,22.9,7.6,35.8s-2.6,24.7-7.6,35.5M634.2,715.1c-1.7-1.7-3.8-3-6.1-4-2.3-1-4.7-1.5-7.2-1.5s-5,.5-7.4,1.5c-2.5,1.1-4.6,2.4-6.3,4-1.7,1.7-3.1,3.6-4.1,5.7-1,2.2-1.5,4.6-1.5,7.1s.5,4.8,1.4,6.9c1,2.2,2.4,4.2,4.1,5.8,1.9,1.8,4,3.1,6.2,4,2.3,1,4.7,1.5,7.4,1.5s4.9-.5,7.2-1.5c2.4-1,4.4-2.3,6.1-4,1.8-1.6,3.2-3.5,4.2-5.8,1-2.1,1.6-4.3,1.6-6.8s-.5-4.9-1.6-7c-1-2.3-2.4-4.2-4.1-5.8"/>
      <path class="st13" d="M704,763.5c-5,10.8-11.9,20.3-20.4,28.3-8.5,7.9-18.4,14.2-29.6,18.7s-23,6.8-35.5,6.8-24.3-2.2-35.6-6.8c-11.2-4.4-21.1-10.7-29.8-18.7-8.6-8.1-15.4-17.5-20.4-28.3-5.1-10.8-7.7-22.7-7.7-35.5s2.6-24.9,7.7-35.8c5.1-10.9,11.9-20.4,20.4-28.3,8.4-7.9,18.3-14.1,29.8-18.8,11.3-4.5,23.2-6.8,35.6-6.8s24.3,2.3,35.5,6.8c11.3,4.6,21.2,10.8,29.6,18.7,8.5,8,15.4,17.5,20.4,28.4,5.1,11,7.6,22.9,7.6,35.8s-2.6,24.7-7.6,35.5M634.2,715.1c-1.7-1.7-3.8-3-6.1-4-2.3-1-4.7-1.5-7.2-1.5s-5,.5-7.4,1.5c-2.5,1.1-4.6,2.4-6.3,4-1.7,1.7-3.1,3.6-4.1,5.7-1,2.2-1.5,4.6-1.5,7.1s.5,4.8,1.4,6.9c1,2.2,2.4,4.2,4.1,5.8,1.9,1.8,4,3.1,6.2,4,2.3,1,4.7,1.5,7.4,1.5s4.9-.5,7.2-1.5c2.4-1,4.4-2.3,6.1-4,1.8-1.6,3.2-3.5,4.2-5.8,1-2.1,1.6-4.3,1.6-6.8s-.5-4.9-1.6-7c-1-2.3-2.4-4.2-4.1-5.8h0Z"/>
    </g>
    <g data-animate="logo-part">
      <path class="st14" d="M894.6,695.4c-.6-8.3-2-16.5-4.2-24.3-2.2-8.1-5.4-15.6-9.4-22.4-4.2-7-9.4-13.2-15.5-18.7h0c-6.4-5.6-13.9-10.1-22.3-13.2-5.7-2.3-11.4-4-16.9-5-4.1-.8-8.4-1.2-12.9-1.2l-5.6.2c-3.7.1-7.5.7-11.4,1.7-3.5.9-6.9,2.1-10.2,3.4-2.1.8-4,1.7-5.7,2.4-.4-1.5-1.3-2.9-2.5-4-1.8-1.7-3.9-2.5-6.3-2.5l-70.4,2c-2.5.1-4.6,1.1-6.3,2.9-1.7,1.8-2.5,4-2.5,6.5l5.5,231.1c.1,2.4,1.1,4.6,2.7,6.2,1.7,1.7,3.9,2.6,6.4,2.6h0l77.3-1.9c2.4,0,4.6-1.1,6.4-2.9h.1c1.6-2,2.4-4.3,2.3-6.8l-3.6-57.5,5.3,1.1,12.1.9,7.2-.3h0c14.3-1,26.9-4.2,37.5-9.3,10.7-5.3,19.5-12.5,26.3-21.5,6.6-8.8,11.4-19.3,14.1-31.3,2.6-11.5,3.4-24.3,2.4-38.1h0ZM807.7,709.8c-.7,1.5-1.6,2.7-2.8,3.6-1.4,1.1-3.2,2-5.3,2.6-2.6.8-5.4,1.3-8.4,1.5l-5.4.2-1.7-31.4,3.9.2c4,.4,7.6,1.4,10.6,2.8,2.8,1.2,5.1,3,6.9,5.4,1.6,2,2.5,5,2.9,8.9.2,2.6,0,4.7-.7,6.2h0Z"/>
      <path class="st3" d="M862,620.7c5.9,5.2,10.8,11.2,14.8,17.8,3.9,6.5,6.9,13.7,9.1,21.5,2.1,7.7,3.5,15.5,4.1,23.7,1,13.6.2,25.9-2.3,37.1-2.6,11.5-7.1,21.5-13.4,29.9-6.5,8.5-14.8,15.3-25.1,20.5-10.2,5-22.2,8-36.1,9l-6.9.3-11.4-.8-9.9-2,3.9,62.2c0,1.6-.4,2.9-1.4,4.1-1.1,1.1-2.4,1.7-3.9,1.8l-77.2,1.9c-1.5,0-2.8-.5-3.8-1.5-1.1-1-1.6-2.3-1.7-3.8l-5.5-231c0-1.5.5-2.8,1.5-4,1-1.1,2.3-1.7,3.9-1.8l70.2-2c1.5,0,2.8.5,3.9,1.5s1.6,2.2,1.7,3.8v3.1c.1,0,1.2-.5,1.2-.5,2.4-1.2,5.4-2.5,9.1-4,3.2-1.3,6.4-2.4,9.8-3.3,3.6-.9,7.2-1.5,10.6-1.5l5.4-.2c4.3,0,8.4.4,12.2,1.2,5.3,1,10.8,2.6,16.3,4.8,8,3,15.1,7.2,21.2,12.6M779.1,670.6l2.1,38.8h1.6l7.4-.2c3.3-.3,6.4-.8,9.2-1.7,2.6-.8,4.8-1.8,6.6-3.2,1.6-1.2,2.9-2.9,3.8-5s1.2-4.7,1-7.9c-.4-4.6-1.6-8.2-3.6-10.8-2.2-2.8-5-5-8.3-6.5-3.4-1.6-7.4-2.6-11.8-3.1l-8-.5"/>
      <path class="st13" d="M862,620.7c5.9,5.2,10.8,11.2,14.8,17.8,3.9,6.5,6.9,13.7,9.1,21.5,2.1,7.7,3.5,15.5,4.1,23.7,1,13.6.2,25.9-2.3,37.1-2.6,11.5-7.1,21.5-13.4,29.9-6.5,8.5-14.8,15.3-25.1,20.5-10.2,5-22.2,8-36.1,9l-6.9.3-11.4-.8-9.9-2,3.9,62.2c0,1.6-.4,2.9-1.4,4.1-1.1,1.1-2.4,1.7-3.9,1.8l-77.2,1.9c-1.5,0-2.8-.5-3.8-1.5-1.1-1-1.6-2.3-1.7-3.8l-5.5-231c0-1.5.5-2.8,1.5-4,1-1.1,2.3-1.7,3.9-1.8l70.2-2c1.5,0,2.8.5,3.9,1.5s1.6,2.2,1.7,3.8v3.1c.1,0,1.2-.5,1.2-.5,2.4-1.2,5.4-2.5,9.1-4,3.2-1.3,6.4-2.4,9.8-3.3,3.6-.9,7.2-1.5,10.6-1.5l5.4-.2c4.3,0,8.4.4,12.2,1.2,5.3,1,10.8,2.6,16.3,4.8,8,3,15.1,7.2,21.2,12.6M779.1,670.6l2.1,38.8h1.6l7.4-.2c3.3-.3,6.4-.8,9.2-1.7,2.6-.8,4.8-1.8,6.6-3.2,1.6-1.2,2.9-2.9,3.8-5s1.2-4.7,1-7.9c-.4-4.6-1.6-8.2-3.6-10.8-2.2-2.8-5-5-8.3-6.5-3.4-1.6-7.4-2.6-11.8-3.1l-8-.5h0Z"/>
    </g>
    <g data-animate="logo-part">
      <path class="st14" d="M1013.9,578.7c-1.7-1.8-3.9-2.7-6.6-2.7h0l-27.8.7-.4-71h0c0-2.7-1.1-4.9-2.8-6.5-1.7-1.7-3.9-2.6-6.4-2.6h0l-79.7,1.7c-2.5,0-4.7,1-6.4,2.8s-2.6,4-2.6,6.5l1.4,72.1-24.1.7c-2.4.1-4.6,1.1-6.2,2.8-1.7,1.8-2.6,4-2.6,6.5l1.1,58.7c0,2.4,1.1,4.6,2.9,6.3,1.7,1.6,3.9,2.5,6.2,2.5l24.3-.7,2.3,103.8c0,2.5,1,4.7,2.7,6.3,1.8,1.7,4,2.6,6.4,2.6l76.1-1c2.5,0,4.7-1,6.4-2.7s2.6-3.9,2.6-6.4l-.9-105.4,26.1-.8c2.4,0,4.5-1,6.2-2.7s2.6-3.8,2.6-6.2l1.6-58.8h0c0-2.6-.9-4.9-2.7-6.7h0l.3.2Z"/>
      <path class="st8" d="M1011.8,573.4l-1.6,58.8c0,1.5-.6,2.7-1.6,3.8s-2.3,1.6-3.8,1.6l-29.6.8.9,108.9c0,1.5-.5,2.8-1.6,3.9-1,1.1-2.3,1.7-3.9,1.7l-76.1,1c-1.5,0-2.8-.5-3.9-1.6-1.1-1-1.6-2.3-1.6-3.8l-2.4-107.4-27.8.8c-1.5,0-2.7-.5-3.8-1.5-1.1-1.1-1.7-2.4-1.8-3.9l-1.1-58.6c0-1.5.5-2.8,1.6-4,1-1.1,2.3-1.6,3.8-1.7l27.6-.8-1.5-75.6c0-1.5.5-2.8,1.6-4,1.1-1.1,2.4-1.7,3.9-1.7l79.7-1.7c1.5,0,2.8.5,3.9,1.6,1.1,1,1.6,2.3,1.7,3.9l.4,74.7,31.4-.8c1.6,0,2.9.5,3.9,1.6,1.1,1.1,1.6,2.5,1.6,4.1"/>
      <path class="st13" d="M1011.8,573.4l-1.6,58.8c0,1.5-.6,2.7-1.6,3.8s-2.3,1.6-3.8,1.6l-29.6.8.9,108.9c0,1.5-.5,2.8-1.6,3.9-1,1.1-2.3,1.7-3.9,1.7l-76.1,1c-1.5,0-2.8-.5-3.9-1.6-1.1-1-1.6-2.3-1.6-3.8l-2.4-107.4-27.8.8c-1.5,0-2.7-.5-3.8-1.5-1.1-1.1-1.7-2.4-1.8-3.9l-1.1-58.6c0-1.5.5-2.8,1.6-4,1-1.1,2.3-1.6,3.8-1.7l27.6-.8-1.5-75.6c0-1.5.5-2.8,1.6-4,1.1-1.1,2.4-1.7,3.9-1.7l79.7-1.7c1.5,0,2.8.5,3.9,1.6,1.1,1,1.6,2.3,1.7,3.9l.4,74.7,31.4-.8c1.6,0,2.9.5,3.9,1.6,1.1,1.1,1.6,2.5,1.6,4.1h0Z"/>
    </g>
    <g data-animate="logo-part">
      <path class="st14" d="M1159,637c-10.5-9.5-24.8-14.3-42.6-14.3s-17.6,1.3-25.9,4c-2.7.8-5.6,1.9-8.6,3.3v-2.9c-.2-2.5-1.2-4.7-3-6.4-1.7-1.6-3.8-2.4-6.2-2.4h-.4l-73.2,4.8c-2.4.2-4.5,1.2-6.1,2.9-1.6,1.7-2.5,4-2.4,6.4l4.6,161.8c0,2.4,1,4.5,2.7,6.2s3.9,2.6,6.3,2.6l70.9-.7c2.5,0,4.7-.9,6.5-2.7h0c1.6-1.8,2.5-4,2.5-6.5l-1.7-104.8h1.2c1.8,0,2.5.3,2.7.3,0,0,.6.3,1.8,1.5,1.5,1.6,2.3,3.7,2.3,6.4s-.2,5.2-.6,7.5c-.6,3.7-1,6.8-1.3,9.1-.3,2.7.5,5.2,2.3,7.2,1.7,1.9,4,2.9,6.7,2.9l67.7-2.2c1.7,0,4.1-.6,6.3-3.1h0c1.5-1.9,2.3-4,2.4-6.2l.6-15.4.4-16.4c0-18.5-5.4-32.9-16.2-42.7h0l.3-.2Z"/>
      <path class="st6" d="M1075.3,611.4c1.1,1,1.7,2.3,1.8,4v8.5c5-2.6,9.4-4.5,13.3-5.7,8.1-2.6,16.4-3.8,24.9-3.8,17,0,30.4,4.5,40.2,13.4,10,9.1,15,22.4,15,40l-.4,16.3-.6,15.3c0,1.5-.6,2.8-1.6,4-1.1,1.2-2.4,1.9-3.8,1.9l-67.6,2.2c-1.7,0-3-.6-4-1.8-1.2-1.2-1.6-2.7-1.4-4.3.2-2.3.6-5.3,1.2-9,.4-2.5.6-5.2.6-8s-1.1-6.6-3.2-8.9c-1.1-1.2-2.1-1.9-2.9-2.3-1-.4-2.4-.7-4.1-.7s-3.3.3-4.9.8l1.8,107.7c0,1.5-.5,2.8-1.6,4-1.1,1.1-2.4,1.7-3.9,1.7l-70.9.7c-1.5,0-2.7-.5-3.8-1.5-1-1-1.6-2.3-1.6-3.8l-4.6-161.7c0-1.5.4-2.8,1.4-3.8,1-1.1,2.2-1.7,3.7-1.8l72.9-4.8h.4c1.5,0,2.8.5,3.8,1.5"/>
      <path class="st13" d="M1075.3,611.4c1.1,1,1.7,2.3,1.8,4v8.5c5-2.6,9.4-4.5,13.3-5.7,8.1-2.6,16.4-3.8,24.9-3.8,17,0,30.4,4.5,40.2,13.4,10,9.1,15,22.4,15,40l-.4,16.3-.6,15.3c0,1.5-.6,2.8-1.6,4-1.1,1.2-2.4,1.9-3.8,1.9l-67.6,2.2c-1.7,0-3-.6-4-1.8-1.2-1.2-1.6-2.7-1.4-4.3.2-2.3.6-5.3,1.2-9,.4-2.5.6-5.2.6-8s-1.1-6.6-3.2-8.9c-1.1-1.2-2.1-1.9-2.9-2.3-1-.4-2.4-.7-4.1-.7s-3.3.3-4.9.8l1.8,107.7c0,1.5-.5,2.8-1.6,4-1.1,1.1-2.4,1.7-3.9,1.7l-70.9.7c-1.5,0-2.7-.5-3.8-1.5-1-1-1.6-2.3-1.6-3.8l-4.6-161.7c0-1.5.4-2.8,1.4-3.8,1-1.1,2.2-1.7,3.7-1.8l72.9-4.8h.4c1.5,0,2.8.5,3.8,1.5h-.1Z"/>
    </g>
    <g data-animate="logo-part">
      <path class="st14" d="M1339.5,681.2c-5.2-11.2-12.4-21.1-21.2-29.4-8.7-8.2-19.1-14.8-30.7-19.5-11.7-4.7-24.1-7.1-36.9-7.1s-25.1,2.4-36.9,7.1c-11.6,4.7-22,11.2-30.9,19.5s-16,18.2-21.2,29.4c-5.3,11.4-8,24-8,37.3s2.7,25.7,8,37.1c5.3,11.2,12.4,21.1,21.3,29.3,8.8,8.2,19.2,14.8,30.8,19.4,11.6,4.7,24.1,7,36.9,7s25.3-2.4,36.9-7c11.7-4.7,22-11.2,30.7-19.4,8.9-8.3,16-18.2,21.2-29.3h0c5.3-11.4,8-23.9,8-37.1s-2.7-25.8-8-37.3h0ZM1267.4,713.1c.8,1.6,1.1,3.4,1.1,5.4s-.4,3.6-1.2,5.4c-.9,1.8-2.1,3.5-3.4,4.8-1.4,1.3-3.1,2.4-5.1,3.2-1.8.8-3.8,1.2-5.9,1.2s-4.2-.4-6-1.2c-2-.8-3.7-1.9-5.2-3.4-1.3-1.2-2.4-2.7-3.3-4.5-.7-1.7-1.1-3.5-1.1-5.5s.4-4,1.1-5.5c.8-1.8,1.9-3.3,3.3-4.6,1.6-1.4,3.3-2.6,5.2-3.4,1.8-.8,3.9-1.1,6-1.1s4,.4,5.9,1.1c1.9.8,3.6,1.9,5,3.3,1.4,1.3,2.5,2.9,3.4,4.8h.2Z"/>
      <path class="st7" d="M1335.1,742.2c-5.1,10.8-11.9,20.2-20.4,28.2-8.4,7.9-18.3,14.1-29.6,18.7-11.2,4.5-23.1,6.8-35.6,6.8s-24.3-2.2-35.6-6.8c-11.3-4.5-21.2-10.7-29.7-18.7-8.6-8-15.4-17.4-20.5-28.2-5.1-11-7.6-22.8-7.6-35.6s2.6-24.8,7.6-35.8c5.1-10.9,11.9-20.3,20.4-28.3,8.6-8,18.5-14.2,29.8-18.8,11.5-4.6,23.3-6.8,35.6-6.8s24.2,2.3,35.6,6.8c11.3,4.6,21.2,10.8,29.6,18.8,8.6,8,15.4,17.4,20.4,28.3,5.1,11,7.7,23,7.7,35.8s-2.6,24.6-7.7,35.6M1259.2,689.8c-2.3-.9-4.7-1.4-7.2-1.4s-5.1.5-7.4,1.4c-2.3,1-4.4,2.3-6.3,4-1.7,1.6-3.1,3.5-4.1,5.7-.9,2.1-1.4,4.5-1.4,7s.5,4.8,1.4,7c1.1,2.3,2.4,4.2,4.1,5.7,1.8,1.7,3.9,3,6.2,4s4.7,1.5,7.4,1.5,5-.5,7.2-1.5c2.3-1,4.4-2.3,6.1-3.9,1.7-1.7,3.1-3.6,4.2-5.8,1-2.2,1.5-4.5,1.5-6.9s-.5-4.8-1.5-7c-1.1-2.3-2.5-4.2-4.2-5.8-1.8-1.7-3.8-3-6.1-4"/>
      <path class="st13" d="M1335.1,742.2c-5.1,10.8-11.9,20.2-20.4,28.2-8.4,7.9-18.3,14.1-29.6,18.7-11.2,4.5-23.1,6.8-35.6,6.8s-24.3-2.2-35.6-6.8c-11.3-4.5-21.2-10.7-29.7-18.7-8.6-8-15.4-17.4-20.5-28.2-5.1-11-7.6-22.8-7.6-35.6s2.6-24.8,7.6-35.8c5.1-10.9,11.9-20.3,20.4-28.3,8.6-8,18.5-14.2,29.8-18.8,11.5-4.6,23.3-6.8,35.6-6.8s24.2,2.3,35.6,6.8c11.3,4.6,21.2,10.8,29.6,18.8,8.6,8,15.4,17.4,20.4,28.3,5.1,11,7.7,23,7.7,35.8s-2.6,24.6-7.7,35.6M1259.2,689.8c-2.3-.9-4.7-1.4-7.2-1.4s-5.1.5-7.4,1.4c-2.3,1-4.4,2.3-6.3,4-1.7,1.6-3.1,3.5-4.1,5.7-.9,2.1-1.4,4.5-1.4,7s.5,4.8,1.4,7c1.1,2.3,2.4,4.2,4.1,5.7,1.8,1.7,3.9,3,6.2,4s4.7,1.5,7.4,1.5,5-.5,7.2-1.5c2.3-1,4.4-2.3,6.1-3.9,1.7-1.7,3.1-3.6,4.2-5.8,1-2.2,1.5-4.5,1.5-6.9s-.5-4.8-1.5-7c-1.1-2.3-2.5-4.2-4.2-5.8-1.8-1.7-3.8-3-6.1-4h0Z"/>
    </g>
    <g data-animate="logo-part">
      <path class="st14" d="M1524.1,669.1c-.3-8.3-1.5-16.5-3.4-24.5s-4.9-15.6-8.7-22.6h0c-3.9-7.1-9-13.6-15-19.2-6.1-5.7-13.4-10.4-21.8-13.9-5.3-2.3-10.9-4.2-16.9-5.5-4.8-1.1-9.8-1.6-14.9-1.6h-3.6c-3.8.2-7.6.6-11.4,1.5-3.4.8-6.8,1.8-10.2,3.1-2,.8-4,1.5-5.8,2.3-.4-1.6-1.2-3-2.4-4.2-1.7-1.7-4-2.7-6.4-2.7h-70.1c-2.5,0-4.7.9-6.4,2.7-1.7,1.7-2.6,3.9-2.7,6.4l-1.4,231c0,2.5.8,4.7,2.6,6.6,1.7,1.7,4,2.7,6.5,2.7l77.2.4c2.4,0,4.7-1,6.5-2.8h0c1.8-2,2.6-4.2,2.5-6.7l-1.8-57.4c1.8.4,3.6.8,5.4,1.2,5,.9,10,1.3,15.1,1.2h4c14.2-.6,26.9-3.4,37.7-8.3,10.9-5,20-11.9,27-20.7,6.9-8.7,12-19,15-30.8,3-11.5,4.2-24.3,3.6-38.1h-.2ZM1437.7,674.8c0,2.6-.2,4.7-.9,6.2-.7,1.5-1.6,2.6-2.8,3.4h0c-1.4,1.1-3.2,2-5.4,2.6-2.5.6-5.3,1-8.4,1.2h-5.4l-.8-31.4,3.9.3c3.8.5,7.3,1.6,10.5,3.1,2.8,1.4,5,3.2,6.8,5.6,1.6,2.1,2.4,5.1,2.6,8.9h0Z"/>
      <path class="st9" d="M1507.6,611.8c3.7,6.8,6.5,14,8.4,21.8s3,15.7,3.4,23.8c.6,13.5-.6,25.9-3.4,37-2.9,11.3-7.7,21.2-14.3,29.5-6.7,8.3-15.2,14.9-25.7,19.7-10.4,4.7-22.5,7.4-36.4,7.9h-3.9c-4.8.1-9.6-.3-14.4-1.1-3.4-.6-6.6-1.4-9.8-2.3l2,62.2c0,1.5-.4,2.8-1.5,4-1.1,1.1-2.4,1.7-3.9,1.7l-77.1-.4c-1.6,0-2.9-.5-3.9-1.6-1.1-1.1-1.6-2.5-1.6-4l1.4-231c0-1.5.6-2.8,1.6-3.9s2.3-1.6,3.9-1.6h70.1c1.5,0,2.8.5,3.9,1.6s1.6,2.3,1.6,3.8v3.2l1.1-.5c2.8-1.3,5.9-2.5,9.2-3.8,3.3-1.2,6.5-2.2,9.8-3,3.5-.8,7-1.2,10.6-1.3h3.6c4.9,0,9.6.4,14.1,1.5,5.7,1.3,11.1,3.1,16.2,5.3,8.1,3.4,15,7.8,20.8,13.2,5.8,5.4,10.5,11.5,14.3,18.3M1428.7,645.1c-3.6-1.7-7.5-2.9-11.7-3.5l-8-.7.9,38.8h9.1c3.4-.2,6.5-.7,9.2-1.3,2.7-.7,5-1.8,6.7-3.1,1.7-1.2,3-2.8,3.9-4.8s1.4-4.6,1.2-7.8c-.2-4.6-1.3-8.2-3.3-11-2.1-2.8-4.8-5.1-8.1-6.7"/>
      <path class="st13" d="M1507.6,611.8c3.7,6.8,6.5,14,8.4,21.8s3,15.7,3.4,23.8c.6,13.5-.6,25.9-3.4,37-2.9,11.3-7.7,21.2-14.3,29.5-6.7,8.3-15.2,14.9-25.7,19.7-10.4,4.7-22.5,7.4-36.4,7.9h-3.9c-4.8.1-9.6-.3-14.4-1.1-3.4-.6-6.6-1.4-9.8-2.3l2,62.2c0,1.5-.4,2.8-1.5,4-1.1,1.1-2.4,1.7-3.9,1.7l-77.1-.4c-1.6,0-2.9-.5-3.9-1.6-1.1-1.1-1.6-2.5-1.6-4l1.4-231c0-1.5.6-2.8,1.6-3.9s2.3-1.6,3.9-1.6h70.1c1.5,0,2.8.5,3.9,1.6s1.6,2.3,1.6,3.8v3.2l1.1-.5c2.8-1.3,5.9-2.5,9.2-3.8,3.3-1.2,6.5-2.2,9.8-3,3.5-.8,7-1.2,10.6-1.3h3.6c4.9,0,9.6.4,14.1,1.5,5.7,1.3,11.1,3.1,16.2,5.3,8.1,3.4,15,7.8,20.8,13.2,5.8,5.4,10.5,11.5,14.3,18.3M1428.7,645.1c-3.6-1.7-7.5-2.9-11.7-3.5l-8-.7.9,38.8h9.1c3.4-.2,6.5-.7,9.2-1.3,2.7-.7,5-1.8,6.7-3.1,1.7-1.2,3-2.8,3.9-4.8s1.4-4.6,1.2-7.8c-.2-4.6-1.3-8.2-3.3-11-2.1-2.8-4.8-5.1-8.1-6.7h.1Z"/>
    </g>
    <g data-animate="logo-part">
      <path class="st14" d="M1645.7,536.8h0c-2.2-7.5-5.8-13.8-10.7-19-4.8-5.1-10.7-9.2-17.8-12.2-6.5-2.8-14-4.8-22.2-5.9l-8.1-.5h-.2c-4.9,0-9.6.5-13.8,1.5-7.2,1.6-13.8,4.4-19.5,8.5-5.9,4.1-10.7,9.3-14.5,15.6-3.8,6.2-6.2,13.5-7.2,21.7s-.4,15.8,1.7,22.5c2.2,6.8,5.7,12.8,10.4,17.8,4.6,4.8,10.3,8.6,16.7,11.5,6.1,2.7,13,4.6,20.6,5.6l8.2.5,12.3-1.1h.3c7.1-1.2,13.9-3.5,20.1-6.9,6.4-3.4,11.9-8,16.5-13.7,4.8-6,7.7-13.2,8.8-21.5,1.1-8.9.5-17.1-1.6-24.3h0Z"/>
      <path class="st5" d="M1641.1,525.8c2,6.8,2.4,14.4,1.4,22.9-1,7.7-3.7,14.2-8.1,19.7-4.2,5.3-9.4,9.6-15.4,12.8-6,3.2-12.3,5.3-19.1,6.5l-12.1,1.1-7.7-.5c-7.3-.9-13.8-2.7-19.6-5.3-6.1-2.7-11.3-6.2-15.6-10.7-4.4-4.6-7.6-10-9.6-16.3s-2.6-13.2-1.6-21,3.2-14.5,6.8-20.3c3.5-5.9,8-10.7,13.5-14.5,5.4-3.8,11.4-6.4,18.2-7.9,4-1,8.3-1.5,13-1.5l7.9.5c7.9,1,15,2.9,21.3,5.6,6.6,2.9,12.2,6.7,16.6,11.4,4.5,4.8,7.8,10.6,9.9,17.5"/>
      <path class="st13" d="M1641.1,525.8c2,6.8,2.4,14.4,1.4,22.9-1,7.7-3.7,14.2-8.1,19.7-4.2,5.3-9.4,9.6-15.4,12.8-6,3.2-12.3,5.3-19.1,6.5l-12.1,1.1-7.7-.5c-7.3-.9-13.8-2.7-19.6-5.3-6.1-2.7-11.3-6.2-15.6-10.7-4.4-4.6-7.6-10-9.6-16.3s-2.6-13.2-1.6-21,3.2-14.5,6.8-20.3c3.5-5.9,8-10.7,13.5-14.5,5.4-3.8,11.4-6.4,18.2-7.9,4-1,8.3-1.5,13-1.5l7.9.5c7.9,1,15,2.9,21.3,5.6,6.6,2.9,12.2,6.7,16.6,11.4,4.5,4.8,7.8,10.6,9.9,17.5h.2Z"/>
    </g>
    <g data-animate="logo-part">
      <g class="st15">
        <path d="M1611.1,629.1l-82.8-20.5-1.8-.2h-.4c-2.1,0-4,.6-5.5,1.9-2.3,1.8-3.6,4.3-3.6,7.2l-1.2,147.3c0,2.4.8,4.6,2.5,6.4,1.6,1.7,3.8,2.7,6.1,2.8l67.4,3.8h.2c2.2,0,4.3-.8,6-2.2,1.7-1.5,2.8-3.5,3-5.7l16.9-130.7c.3-2.2-.3-4.4-1.6-6.3-1.3-1.9-3.1-3.2-5.3-3.7h.1Z"/>
      </g>
      <path class="st4" d="M1526.3,600.2l82.8,20.5c1.3.3,2.4,1.1,3.2,2.2s1.1,2.4.9,3.8l-16.9,130.6c-.2,1.4-.8,2.6-1.9,3.5-1,.9-2.2,1.3-3.6,1.3l-67.4-3.8c-1.5,0-2.7-.6-3.7-1.7s-1.5-2.4-1.5-3.8l1.2-147.4c0-1.8.7-3.2,2.1-4.3,1-.8,2.1-1.2,3.4-1.2l1.4.2"/>
      <path class="st13" d="M1526.3,600.2l82.8,20.5c1.3.3,2.4,1.1,3.2,2.2s1.1,2.4.9,3.8l-16.9,130.6c-.2,1.4-.8,2.6-1.9,3.5-1,.9-2.2,1.3-3.6,1.3l-67.4-3.8c-1.5,0-2.7-.6-3.7-1.7s-1.5-2.4-1.5-3.8l1.2-147.4c0-1.8.7-3.2,2.1-4.3,1-.8,2.1-1.2,3.4-1.2l1.4.2h0Z"/>
    </g>
    <g data-animate="logo-part">
      <path class="st14" d="M1787,663.6c-3.7-5-8.2-9.7-13.4-13.8-5-4-10.5-7.6-16.4-10.8-5.8-3.2-11.9-5.8-18-7.9-5.9-2.1-12-3.7-18.1-4.7h0c-6.1-1-11.9-1.5-17.5-1.5s-15.6.9-23,2.7c-13.1,3.1-25.1,8.3-35.7,15.7-10.7,7.5-19.9,17-27.1,28.1-7.3,11.3-12.2,24.1-14.6,38.2-2.3,14.5-1.6,28.2,2.3,40.8,3.9,12.5,10,23.8,18.2,33.5,8.2,9.6,18.3,17.7,30.1,24.1,11.7,6.3,24.4,10.6,37.7,12.8,8.6,1.4,17.7,2.2,26.8,2.2h5c11.1-.3,22-2.2,32.5-5.8,2.1-.7,3.7-2,4.8-3.8,1.1-1.8,1.6-3.9,1.3-6l-8.1-60.4c-.3-2.6-1.6-4.8-3.8-6.2-1.6-1.2-3.4-1.8-5.3-1.8l-8.7,1.3-7.8.6h-7.8l-7-.7c-2.5-.5-4.9-1.2-7.2-2.3-2.2-1-4-2.3-5.4-3.8-1.3-1.4-2.3-3-2.9-4.9-.6-1.7-.7-3.8-.3-6.1.3-1.9.9-3.5,1.9-4.8,1.1-1.4,2.4-2.5,4.1-3.4,1.9-1,3.9-1.6,5.9-1.8l3.2-.2,4.5.4c3.9.7,7.8,1.9,11.6,3.8,3.9,2,7.5,4.4,10.6,7.1,1.7,1.5,3.8,2.3,6.1,2.3h1c2.6-.3,4.8-1.6,6.4-3.8l34.4-48.3h0c1.1-1.7,1.6-3.5,1.6-5.4s-.6-3.8-1.8-5.3h0Z"/>
      <path class="st10" d="M1719.3,618c5.9,1,11.8,2.5,17.6,4.5,6,2.1,11.8,4.6,17.5,7.7s11,6.6,15.9,10.5c5,3.9,9.2,8.3,12.8,13.2.7.9,1.1,2,1.1,3.2s-.3,2.3-1,3.3l-34.4,48.3c-1,1.3-2.2,2.1-3.9,2.2h-.6c-1.4,0-2.6-.4-3.6-1.4-3.3-2.9-7.1-5.5-11.4-7.7-4.3-2.1-8.5-3.5-12.8-4.2l-4.9-.4-3.6.2c-2.5.3-4.9,1-7.2,2.2-2.1,1.1-3.8,2.6-5.2,4.4-1.4,1.7-2.2,3.9-2.6,6.4-.5,2.9-.4,5.5.4,7.8.8,2.4,2.1,4.5,3.8,6.2,1.7,1.8,3.9,3.4,6.4,4.6,2.6,1.3,5.4,2.2,8.3,2.7l7.4.8h8.1l8.1-.6,7.2-1.2,1.1-.2c1.2,0,2.2.4,3.2,1.1,1.3.9,2.1,2.1,2.2,3.8l8.1,60.4c.2,1.3,0,2.5-.8,3.7-.7,1.1-1.7,1.9-2.9,2.3-10.2,3.5-20.7,5.4-31.4,5.6h-4.9c-9,0-17.7-.7-26.2-2-12.9-2.1-25.1-6.2-36.6-12.4-11.5-6.2-21.2-14-29.1-23.3-8-9.4-13.8-20.2-17.6-32.2-3.7-12.1-4.4-25.2-2.1-39.2,2.3-13.7,6.9-26,14.1-36.8,7-10.8,15.8-19.8,26.1-27.1,10.3-7.1,21.8-12.2,34.4-15.2,7.1-1.7,14.5-2.6,22.1-2.6s11,.5,16.9,1.4"/>
      <path class="st13" d="M1719.3,618c5.9,1,11.8,2.5,17.6,4.5,6,2.1,11.8,4.6,17.5,7.7s11,6.6,15.9,10.5c5,3.9,9.2,8.3,12.8,13.2.7.9,1.1,2,1.1,3.2s-.3,2.3-1,3.3l-34.4,48.3c-1,1.3-2.2,2.1-3.9,2.2h-.6c-1.4,0-2.6-.4-3.6-1.4-3.3-2.9-7.1-5.5-11.4-7.7-4.3-2.1-8.5-3.5-12.8-4.2l-4.9-.4-3.6.2c-2.5.3-4.9,1-7.2,2.2-2.1,1.1-3.8,2.6-5.2,4.4-1.4,1.7-2.2,3.9-2.6,6.4-.5,2.9-.4,5.5.4,7.8.8,2.4,2.1,4.5,3.8,6.2,1.7,1.8,3.9,3.4,6.4,4.6,2.6,1.3,5.4,2.2,8.3,2.7l7.4.8h8.1l8.1-.6,7.2-1.2,1.1-.2c1.2,0,2.2.4,3.2,1.1,1.3.9,2.1,2.1,2.2,3.8l8.1,60.4c.2,1.3,0,2.5-.8,3.7-.7,1.1-1.7,1.9-2.9,2.3-10.2,3.5-20.7,5.4-31.4,5.6h-4.9c-9,0-17.7-.7-26.2-2-12.9-2.1-25.1-6.2-36.6-12.4-11.5-6.2-21.2-14-29.1-23.3-8-9.4-13.8-20.2-17.6-32.2-3.7-12.1-4.4-25.2-2.1-39.2,2.3-13.7,6.9-26,14.1-36.8,7-10.8,15.8-19.8,26.1-27.1,10.3-7.1,21.8-12.2,34.4-15.2,7.1-1.7,14.5-2.6,22.1-2.6s11,.5,16.9,1.4h0Z"/>
    </g>
    <g data-animate="logo-part">
      <path class="st14" d="M1960.8,678.1c-1.4-2-3.4-3.2-5.8-3.6l-68.1-11.7h-1.7c-1.9,0-3.7.5-5.3,1.7-1.8,1.3-3,3.1-3.5,5.2-1.6-.7-3.3-1.5-5.1-2.2-5.9-2.4-12-4.3-18.1-5.6l-1.9-.4c-5.4-.9-10.9-1.3-16.3-1.1h-1.5c-5.9.3-11.7,1.1-17.3,2.3-9,2-17.2,5.1-24.5,9.3-7.4,4.2-13.9,9.5-19.2,15.5-5.5,6.1-10,13-13.4,20.6-3.5,7.4-6.1,15.6-7.9,24.4l-.9,4.3c-.4,1.8-.6,3.6-.7,5.3-2.1,19,.4,36,7.4,50.4,7.3,14.7,19.6,26.6,36.4,35.6,4.7,2.6,9.2,4.8,13.4,6.4,4.6,1.9,9.6,3.4,14.8,4.4,6.9,1.4,13.9,2.2,20.8,2.3h3.5l6.1-.5c.3.7.7,1.3,1.2,1.9,1.4,1.6,3.1,2.7,5.2,3.1l66.9,14,1.9.2h.3c1.9,0,3.6-.7,4.9-1.7,2-1.4,3.3-3.5,3.8-6.1l26.1-167.5c.4-2.4-.2-4.8-1.6-6.7h0v.2ZM1865.6,740.7l-4.4,29-5.4-.9c-3.1-.6-6-1.4-8.6-2.5-2.3-.9-4.2-2-5.8-3.3-1.2-1.1-2.1-2.4-2.6-4h0c-.5-1.5-.5-3.5,0-6,.7-3.4,1.9-5.9,3.5-7.4,2.1-1.9,4.4-3.3,7.1-4.1,2.6-.7,5.3-1.2,7.9-1.3h2.3l6,.6h0Z"/>
      <path class="st0" d="M1834,652c5.2-.2,10.4.2,15.6,1l1.9.3c5.9,1.2,11.7,3,17.4,5.3,3.5,1.5,6.6,2.9,9.2,4.2l.6-3.9c.2-1.5.9-2.8,2.2-3.7,1-.7,2-1,3.1-1h1.1l68.1,11.8c1.5.3,2.7,1,3.6,2.2s1.2,2.6,1,4.1l-26.1,167.5c-.3,1.6-1,2.8-2.3,3.7-.8.6-1.9.9-3.1,1l-1.2-.2-66.9-14c-1.3-.3-2.3-.9-3.1-1.9-.8-1-1.2-2.1-1.2-3.4l-8.8.8h-3.5c-6.7,0-13.4-.8-20.1-2.2-5-1-9.7-2.5-14.1-4.2-4-1.6-8.4-3.7-13-6.2-16.3-8.7-28-20-34.9-34-6.8-13.9-9.1-30.1-7.1-48.5,0-1.6.3-3.3.6-4.9l.9-4.3c1.7-8.6,4.3-16.5,7.6-23.7,3.3-7.3,7.6-13.8,12.9-19.7,5.1-5.8,11.2-10.7,18.3-14.8,7-4,14.8-7,23.5-8.9,5.4-1.2,11-2,16.6-2.2h1.4M1856.2,724.6c-3,0-6,.6-8.9,1.4-3.3,1-6.1,2.7-8.6,5-2.2,2-3.7,5.1-4.6,9.3-.7,3.3-.6,5.9.2,8,.7,2.1,1.9,3.9,3.6,5.5,1.9,1.6,4.1,2.9,6.8,4,2.9,1.2,6,2.1,9.3,2.7l7.1,1.2,2,.2,5.4-36.2-9.9-.9h-2.5"/>
      <path class="st13" d="M1834,652c5.2-.2,10.4.2,15.6,1l1.9.3c5.9,1.2,11.7,3,17.4,5.3,3.5,1.5,6.6,2.9,9.2,4.2l.6-3.9c.2-1.5.9-2.8,2.2-3.7,1-.7,2-1,3.1-1h1.1l68.1,11.8c1.5.3,2.7,1,3.6,2.2s1.2,2.6,1,4.1l-26.1,167.5c-.3,1.6-1,2.8-2.3,3.7-.8.6-1.9.9-3.1,1l-1.2-.2-66.9-14c-1.3-.3-2.3-.9-3.1-1.9-.8-1-1.2-2.1-1.2-3.4l-8.8.8h-3.5c-6.7,0-13.4-.8-20.1-2.2-5-1-9.7-2.5-14.1-4.2-4-1.6-8.4-3.7-13-6.2-16.3-8.7-28-20-34.9-34-6.8-13.9-9.1-30.1-7.1-48.5,0-1.6.3-3.3.6-4.9l.9-4.3c1.7-8.6,4.3-16.5,7.6-23.7,3.3-7.3,7.6-13.8,12.9-19.7,5.1-5.8,11.2-10.7,18.3-14.8,7-4,14.8-7,23.5-8.9,5.4-1.2,11-2,16.6-2.2h1.4M1856.2,724.6c-3,0-6,.6-8.9,1.4-3.3,1-6.1,2.7-8.6,5-2.2,2-3.7,5.1-4.6,9.3-.7,3.3-.6,5.9.2,8,.7,2.1,1.9,3.9,3.6,5.5,1.9,1.6,4.1,2.9,6.8,4,2.9,1.2,6,2.1,9.3,2.7l7.1,1.2,2,.2,5.4-36.2-9.9-.9h-2.5v-.2Z"/>
    </g>
    <g data-animate="logo-part">
      <path class="st14" d="M998.8,1008c-.7-1.9-2.3-3.5-4.2-4.1-.6-.2-1.2-.3-1.9-.3-1.4,0-2.8.4-3.9,1.3-17.1,13.1-45.6,21.9-70.8,21.9s-41.2-9.3-48.6-17.1c-9.7-10.3-14-25.1-12.8-44,1.4-22.9,11.6-40.7,30.2-53,15.2-10,36-15.8,56.9-15.8s3.9,0,5.9.2c15.1.8,30.3,4.6,45.1,11.3.9.4,1.8.6,2.6.6s2.2-.3,3.1-.8c1.8-1,3-2.8,3.3-4.8,4.1-31.5,4.7-62.1,1.7-90.9-.3-2.5-2-4.7-4.4-5.5-16.6-5.4-34.6-8.2-53.7-8.2v3.2h0v-3.2c-15.4,0-31.4,1.8-47.4,5.3-36.4,8-67.9,25.7-90.9,51-12.4,13.6-22.1,29.3-29.1,46.7-7.4,18.4-11.5,38.7-12.4,60.5-1.1,26.9,1.8,51.2,8.6,72.1,6.4,19.9,16.4,36.9,29.6,50.7,24.9,26,60.6,39.7,103.3,39.7s30.5-1.7,46.3-5.1c19.2-4.1,38.2-10.8,56.6-19.8,2.3-1.1,3.7-3.5,3.6-6.1-1.4-29.5-7-58.3-16.6-85.7h0Z"/>
      <g>
        <path class="st18" d="M911.2,1102.2c-41.8,0-76.7-13.4-101-38.7-26.9-28-39.4-68.5-37.2-120.5,1.7-41.3,15.8-77.7,40.7-105.2,22.6-24.9,53.4-42.2,89.2-50,15.8-3.5,31.6-5.2,46.7-5.2s36.5,2.7,52.7,8c1.2.4,2.1,1.5,2.2,2.7,3,28.5,2.4,58.9-1.7,90.2,0,1-.7,1.9-1.6,2.4-.5.3-1,.4-1.6.4s-.9,0-1.3-.3c-15.1-6.8-30.7-10.7-46.2-11.5-2,0-4-.2-6.1-.2-21.6,0-43,5.9-58.7,16.3-19.5,12.9-30.1,31.5-31.6,55.5-1.2,19.8,3.4,35.4,13.7,46.4,14.1,15,35.5,18.1,50.9,18.1,25.8,0,55.1-9.1,72.7-22.5.6-.4,1.3-.7,2-.7s.6,0,.9,0c1,.3,1.8,1.1,2.1,2,9.5,27.1,15,55.6,16.4,84.8,0,1.3-.6,2.5-1.8,3.1-18.1,8.9-36.9,15.5-55.8,19.6-15.5,3.4-30.9,5.1-45.6,5.1h0Z"/>
        <path class="st20" d="M949.6,785.8c17.5,0,35,2.4,51.7,7.9,3.1,29.6,2.2,60-1.7,89.4-15.1-6.8-31.1-11-47.4-11.8-2,0-4.1-.2-6.2-.2-40,0-90.2,20-93.6,74.8-3.1,50.3,30.7,68,67.8,68s57.1-9.8,74.7-23.2c9.3,26.6,14.8,55,16.2,83.9-17.7,8.7-36.2,15.2-55.1,19.3-15.2,3.3-30.3,5-44.9,5-76.2,0-139.5-46.2-135-155.8,3.6-86.8,60.2-137.4,127.3-152.1,15-3.3,30.5-5.2,46-5.2M949.6,779.4v6.5-6.5c-15.4,0-31.4,1.8-47.4,5.3-36.4,8-67.9,25.7-90.9,51-12.4,13.6-22.1,29.3-29.1,46.7-7.4,18.4-11.5,38.7-12.4,60.5-1.1,26.9,1.8,51.2,8.6,72.1,6.4,19.9,16.4,36.9,29.6,50.7,24.9,26,60.6,39.7,103.3,39.7s30.5-1.7,46.3-5.1c19.2-4.1,38.2-10.8,56.6-19.8,2.3-1.1,3.7-3.5,3.6-6.1-1.4-29.5-7-58.3-16.6-85.7-.7-1.9-2.3-3.5-4.2-4.1-.6-.2-1.2-.3-1.9-.3-1.4,0-2.8.4-3.9,1.3-17.1,13.1-45.6,21.9-70.8,21.9s-41.2-9.3-48.6-17.1c-9.7-10.3-14-25.1-12.8-44,1.4-22.9,11.6-40.7,30.2-53,15.2-10,36-15.8,56.9-15.8s3.9,0,5.9.2c15.1.8,30.3,4.6,45.1,11.3.9.4,1.8.6,2.6.6s2.2-.3,3.1-.8c1.8-1,3-2.8,3.3-4.8,4.1-31.5,4.7-62.1,1.7-90.9-.3-2.5-2-4.7-4.4-5.5-16.6-5.4-34.6-8.2-53.7-8.2h0Z"/>
      </g>
    </g>
    <g data-animate="logo-part">
      <path class="st14" d="M1092.1,780.1c-8.2-1.3-16.5-2-24.7-2v3.2h0v-3.2h0c-14.6,0-28.8,2.1-42.2,6.2-2.6.8-4.4,3.1-4.6,5.8l-19,324.3c-.2,3.2,2,6,5.1,6.7,10.4,2.2,21.5,3.3,33.9,3.3s18.1-.5,29.5-1.6c1.7-.2,3.3-1,4.4-2.3l.8-.9c.9-1,1.4-2.3,1.4-3.7l20.9-328.9c.2-3.3-2.1-6.2-5.4-6.8h-.1Z"/>
      <g>
        <path class="st17" d="M1043,1101.7c-12.2,0-23.1-1.1-33.3-3.2-1.6-.3-2.6-1.8-2.6-3.3l19-324.3c0-1.3,1-2.5,2.3-2.9,13.1-4,27-6,41.3-6s16.2.7,24.2,2c1.6.3,2.8,1.7,2.7,3.4l-20.9,328.9c0,.7-.3,1.3-.7,1.8l-.8.9c-.5.7-1.3,1.1-2.2,1.2-11.3,1.1-20.5,1.6-29.1,1.6h0Z"/>
        <path class="st20" d="M1069.7,765.1c8,0,15.9.7,23.7,1.9l-20.9,328.9-.8.9c-9.6.9-19.2,1.6-28.8,1.6s-21.8-.9-32.6-3.2l19-324.3c13.1-4,26.8-5.9,40.3-5.9M1069.7,758.6v6.5-6.5h0c-14.6,0-28.8,2.1-42.2,6.2-2.6.8-4.4,3.1-4.6,5.8l-19,324.4c-.2,3.2,2,6,5.1,6.7,10.4,2.2,21.5,3.3,33.9,3.3s18.1-.5,29.5-1.6c1.7-.2,3.3-1,4.4-2.3l.8-.9c.9-1,1.4-2.3,1.4-3.7l20.9-328.9c.2-3.3-2.1-6.2-5.4-6.8-8.2-1.3-16.5-2-24.7-2h0v-.2Z"/>
      </g>
    </g>
    <g data-animate="logo-part">
      <path class="st14" d="M1279.1,950.7c-1.8-17.3-4.8-35.7-9.2-57.8-.6-2.8-2.9-4.9-5.7-5.2-3.9-.4-8-.6-12.1-.6h0c-19.1,0-37.9,4.2-56.1,8.3l-1.7.4c-3.4.8-5.6,4.1-4.9,7.5.5,2.7,1,5.5,1.5,8.2,2.9,15.5,5.9,31.4,7.4,47.3,1.9,21.6,5.5,61.8-17.7,66.3-2,.4-3.9.6-5.7.6-17.4,0-26.2-17-27.2-33.8-.8-13.2,0-27.7.9-41.8.3-5,.6-10.2.8-15.2,0-3.5.3-7,.4-10.4.3-7.2.5-14.7,1-22,.2-3.1-1.8-5.9-4.9-6.7-13.6-3.4-28.1-5.1-44.4-5.1s-17,.4-26.6,1.3c-2.9.3-5.3,2.5-5.8,5.4l-.3,1.8c-1,6.3-2.1,12.8-2.6,19.4-2.9,33.3-4.8,95,15,133.9,18.3,35.9,55.7,58.2,97.7,58.2s44.7-6.9,62.1-19.4c19.2-13.9,32.3-34.2,37.9-58.8,5.4-23.6,3.3-53.3.3-81.8h-.1Z"/>
      <g>
        <path class="st16" d="M1181.2,1088.1c-40.8,0-77.1-21.6-94.8-56.5-19.4-38.2-17.5-99.2-14.6-132.2.6-6.5,1.6-12.9,2.6-19.2l.3-1.8c.2-1.5,1.4-2.6,2.9-2.7,9.5-.9,18.2-1.3,26.4-1.3,16,0,30.3,1.6,43.6,5,1.5.4,2.5,1.8,2.4,3.3-.5,7.3-.8,14.8-1,22.1,0,3.5-.3,6.9-.4,10.4-.2,4.9-.5,10.1-.8,15.2-.8,14.1-1.7,28.7-.9,42.2,1.1,18.3,11,36.8,30.4,36.8h0c2.1,0,4.2-.2,6.4-.6,26-5.1,22.3-47.2,20.3-69.8-1.4-16-4.4-32-7.4-47.6-.5-2.7-1-5.4-1.5-8.2-.3-1.7.8-3.4,2.5-3.7l1.7-.4c18-4,36.7-8.2,55.4-8.2s8,.2,11.8.6c1.4.2,2.6,1.2,2.8,2.6,4.4,22,7.3,40.3,9.1,57.5,3,28.3,5.1,57.6-.2,80.8-5.4,23.8-18.1,43.4-36.7,56.9-16.8,12.1-38.1,18.8-60.2,18.8h0Z"/>
        <path class="st20" d="M1254.5,874.1c3.8,0,7.6.2,11.4.6,3.8,18.9,7,38,9.1,57.2,2.6,24.5,5.3,55.8,0,79.7-11.2,49.1-52,73.2-93.7,73.2s-73.4-18.4-91.9-54.7c-17.8-34.9-17.7-91.2-14.3-130.4.6-6.9,1.8-13.8,2.9-20.7,8.7-.8,17.4-1.3,26.1-1.3,14.4,0,28.7,1.3,42.8,4.9-.7,10.8-1,21.7-1.4,32.5-.8,18.5-2.8,39.1-1.7,57.7,1.4,22.3,13.9,39.9,33.6,39.9s4.6-.2,7-.7c28.7-5.6,25-49.3,22.9-73.2-1.7-18.9-5.5-37.5-9-56,18.4-4.1,37.5-8.5,56.4-8.6M1254.5,867.7h0c-19.1,0-37.9,4.2-56.1,8.3l-1.7.4c-3.4.8-5.6,4.1-4.9,7.5.5,2.7,1,5.5,1.5,8.2,2.9,15.5,5.9,31.4,7.4,47.3,1.9,21.6,5.5,61.8-17.7,66.3-2,.4-3.9.6-5.7.6-17.4,0-26.2-17-27.2-33.8-.8-13.2,0-27.7.9-41.8.3-5,.6-10.2.8-15.2,0-3.5.3-7,.4-10.4.3-7.2.5-14.7,1-22,.2-3.1-1.8-5.9-4.9-6.7-13.6-3.4-28.1-5.1-44.4-5.1s-17,.4-26.6,1.3c-2.9.3-5.3,2.5-5.8,5.4l-.3,1.8c-1,6.3-2.1,12.8-2.6,19.4-2.9,33.3-4.8,95,15,133.9,18.3,35.9,55.7,58.2,97.7,58.2s44.7-6.9,62.1-19.4c19.2-13.9,32.3-34.2,37.9-58.8,5.4-23.6,3.3-53.3.3-81.8-1.8-17.3-4.8-35.7-9.2-57.8-.6-2.8-2.9-4.9-5.7-5.2-3.9-.4-8-.6-12.1-.6h-.1Z"/>
      </g>
    </g>
    <g data-animate="logo-part">
      <path class="st14" d="M1513.8,979.6c-4.6-24.3-16.6-46-34.6-62.6-18.3-16.9-42.7-26.6-67-26.6s-43.9,8.5-59.6,23.7l-11.7-127.8c-.3-3.3-3.1-5.9-6.4-5.9h-28.3l-22.6,2h-.5l-23.9,4.1c-3.3.6-5.6,3.6-5.4,6.9l27.1,317.6c.3,3.3,3.1,5.9,6.4,5.9h0l30.6-.2h.5l40.9-3.7c3.6-.3,6.2-3.5,5.8-7l-.4-4.6c4.8,2.9,10.1,5.4,15.9,7.4,9.2,3.1,19.7,4.8,30.2,5.1h2.5c21.6,0,41.9-6.7,58.6-19.4,15.4-11.7,27.6-28.1,35.2-47.4,8.3-21.2,10.6-45.2,6.4-67.5h.3ZM1411.8,1015.4c-3.4,4.1-8.6,6.4-14.1,6.4s-8.6-1.4-12.3-4.2c-8.2-6-9.6-15.4-8.1-22.2,1.3-6.1,5.6-13.2,13.6-14.9,1.1-.2,2.4-.4,3.7-.4,9,0,19.5,5.7,21.3,16.2,1.3,7.7,0,14.3-4.1,19.1h0Z"/>
      <g>
        <path class="st19" d="M1289.8,1094.3c-1.7,0-3.1-1.3-3.2-2.9l-27.1-317.6c0-1.7,1-3.2,2.7-3.5l23.9-4.1h.2l22.6-2h28c1.7,0,3.1,1.3,3.2,3l12.4,134.9c15.5-17.8,37.7-27.8,62.1-27.8s47.1,9.4,64.8,25.7c17.5,16.2,29.1,37.2,33.6,60.9,4.1,21.7,1.9,45-6.2,65.7-7.4,18.8-19.2,34.7-34.1,46.1-16.2,12.2-35.8,18.7-56.6,18.7s-1.6,0-2.4,0c-19.8-.5-37.6-6.2-50.1-15.9l1,11.5c.2,1.8-1.1,3.3-2.9,3.5l-40.9,3.7h-.3l-30.6.2h-.1ZM1397,957.5c-1.5,0-3,.2-4.4.4-8,1.7-14.1,8.3-16.1,17.4-1.7,7.8,0,18.6,9.4,25.5,4.3,3.1,9.2,4.8,14.2,4.8h0c6.4,0,12.5-2.7,16.5-7.5,3.2-3.8,6.7-10.7,4.9-21.7-1.5-9.2-10.6-18.9-24.5-18.9h0Z"/>
        <path class="st20" d="M1309.1,767.4h27.7l13.1,143c15.9-22.4,40-33,64.6-33s45.1,8.6,62.6,24.9c68.1,63,29.5,185.7-61.1,185.7s-1.6,0-2.4,0c-18.4-.4-39.4-5.8-53.2-19.6,0,.7-.6,2.6-.6,2.9l1.4,15.8-40.9,3.7-30.6.2-27.1-317.6,23.9-4.1,22.6-2M1400.1,1008.8c14.6,0,28-12.3,24.6-33-2.4-14.3-16.2-21.6-27.7-21.6s-3.4.2-5,.5c-20.3,4.3-27.1,34.6-8,48.6,5,3.7,10.6,5.4,16.1,5.4M1309.1,760.9h-.6l-22.6,2h-.5l-23.9,4.1c-3.3.6-5.6,3.6-5.4,6.9l27.1,317.6c.3,3.3,3.1,5.9,6.4,5.9h0l30.6-.2h.5l40.9-3.7c3.6-.3,6.2-3.5,5.8-7l-.4-4.6c4.8,2.9,10.1,5.4,15.9,7.4,9.2,3.1,19.7,4.8,30.2,5.1h2.5c21.6,0,41.9-6.7,58.6-19.4,15.4-11.7,27.6-28.1,35.2-47.4,8.3-21.2,10.6-45.2,6.4-67.5-4.6-24.3-16.6-46-34.6-62.6-18.3-16.9-42.7-26.6-67-26.6s-43.9,8.5-59.6,23.7l-11.7-127.8c-.3-3.3-3.1-5.9-6.4-5.9h-27.7.3ZM1400.1,1002.4c-4.4,0-8.6-1.4-12.3-4.2-8.2-6-9.6-15.4-8.1-22.2,1.3-6.1,5.6-13.2,13.6-14.9,1.1-.2,2.4-.4,3.7-.4,9,0,19.5,5.7,21.3,16.2,1.3,7.7,0,14.3-4.1,19.1-3.4,4.1-8.6,6.4-14.1,6.4h0Z"/>
      </g>
    </g>
  </g>
  <g>
    <g data-animate="logo-part">
      <path class="st11" d="M812.1,450.7c-5.3,3.2-9.8,5.2-13.7,6-3.3.7-7.9.6-13.9-.1l-1.8-8.8c0-.9-.5-2.2-1.1-4.1-.7-1.8-1.1-3.1-1.3-3.9-3.7-18.1-8.4-34.8-14.1-50.1-.8,2.9-1.6,6.4-2.4,10.5-.8,4.1-1.5,8.6-2.1,13.5-.6,4.8-1.1,9-1.5,12.6-.4,3.6-.9,7.7-1.4,12.4-.5,4.7-.8,7.6-.9,8.6l-11.7,2.4-30.6-33.3c1,6.5,2.5,15.1,4.5,25.6,1.9,10.6,3.3,18.5,4.2,23.7-6.7,2.3-11.1,3.6-13.3,4.1-3.9.8-8.7.7-14.6-.1l-1.6-8.5-11.4-90.5,12.9-14.1,43.8,50.3c.4-6.6,2.4-16.8,5.9-30.4,3.5-13.7,6.6-24.1,9.2-31.2l22.4,2.8,2.5,7.6c1.6,4.4,3.4,9,5.3,14l3.6,9.5c7.6,21,14.7,42.1,21,63.2l2.2,8.4Z"/>
      <path class="st11" d="M877.8,408.8l-40.5,12.7c4.6,8.3,12.8,11.8,24.5,10.3,1-.1,6.4-1.5,16.3-4.1,0,10.1-2,19.8-6.1,29.1l-10.6-.6c-8.4-.3-15.2-1.5-20.5-3.5h.1c-10.1-3.4-17.4-8.2-21.9-14.5-5.8-8-9.3-17.1-10.6-27.3-.8-6.1-.4-12.1,1-18,2.4-8.6,6.1-15.3,11.1-20.2,5-4.8,11.2-7.5,18.5-7.9h-.1c22.6-1.4,35.5,13.2,38.8,44ZM832.9,403.3c1.8-.6,4.5-1.5,8.1-2.5,3.6-1,6.2-1.8,7.8-2.3-1.1-5.3-1.9-8.6-2.6-9.9-1.5-2.7-3.6-3.9-6.1-3.5-1.2,0-2.5.9-3.8,2.5s-2.3,3.6-2.8,5.9c-.7,3.7-.9,6.9-.5,9.9Z"/>
      <path class="st11" d="M908.4,391.7c.3,1.4,1.2,2.3,2.5,2.9,1.4.6,3.9,1.3,7.5,2.2,3.6.9,6.4,1.6,8.5,2.2,2,.6,4.7,1.7,7.9,3.2,3.2,1.5,5.8,3.2,7.6,5,1.8,1.8,3.5,4.3,5.1,7.4,1.6,3.1,2.6,6.6,2.9,10.6.7,8.4-1.8,15.6-7.6,21.4-5.8,5.9-13.5,9.2-23.2,10-6.7.6-12.2.2-16.7-1.2-4.5-1.3-8-3.7-10.4-7-2.4-3.3-4.1-7-5.2-11-1.1-4.1-1.8-9-2.1-14.9l25-.3c-.7,3.4-.5,7.3.7,11.8.3,1.1,1,2,2.2,2.8,1.2.8,2.6,1.1,4.2,1,2.5-.2,4.6-1.4,6.2-3.6,1.6-2.2,2.3-4.8,2-7.7-.1-1.7-.6-3.1-1.4-4.4-.8-1.3-2.1-2.3-3.8-3.2-1.8-.8-3.2-1.4-4.3-1.8-1.1-.4-2.9-.9-5.5-1.5-3.3-.9-6-1.6-7.9-2.1-1.9-.5-4.2-1.4-7-2.7-2.7-1.3-4.8-2.6-6.3-3.9-1.5-1.4-2.9-3.1-4.1-5.3-1.3-2.2-2-4.7-2.3-7.6-.6-6.1.7-11.3,4-15.7,3.3-4.4,7.3-7.6,12.1-9.5,4.8-1.9,9.9-3.1,15.5-3.6,3.4-.3,6.2-.4,8.3-.3,2.1,0,4.5.5,7.2,1.3,2.7.8,4.8,2.1,6.5,3.9,1.6,1.8,3.2,4.4,4.6,8,1.4,3.5,2.5,7.9,3.1,13.1l-17.8,2.8c-.5-3.6-1.7-6.3-3.5-8.2-1.8-1.9-3.7-2.8-5.6-2.7-2.8.1-5,1.1-6.9,2.9-1.8,1.8-2.5,3.8-2.2,6Z"/>
      <path class="st11" d="M975.9,365.7c0,1,.5,1.9,1.5,2.6,1,.8,2,1.3,3,1.6l1.3.4,1.3.6c1,.3,1.5.4,1.6.4,3.4,1.4,6.1,2.4,7.9,3.2,1.8.8,4.3,2.1,7.3,4,3.1,1.9,5.4,3.8,7,5.8,1.6,2,3,4.6,4.3,7.9,1.3,3.3,2,7.1,2,11.2,0,8.6-3.1,15.8-9.4,21.4-6.4,5.6-14.2,8.5-23.5,8.5-12.5,0-20.7-3.1-24.5-9.6-1.1-1.9-1.9-3.9-2.5-6.3-.6-2.3-1-5.4-1.5-9.2-.4-3.8-.8-6.6-1.1-8.2l22.2-1.9c-.2,2-.2,3.9,0,5.7.2,1.9.4,3.5.8,4.9.4,1.4,1.1,2.6,2.4,3.4,1.2.9,2.9,1.3,4.9,1.3,2.5,0,4.5-1.1,6.2-3.3,1.7-2.2,2.5-4.7,2.5-7.7,0-1.4-.3-2.7-.9-3.9-.6-1.2-1.2-2.2-1.9-2.9-.6-.7-1.7-1.5-3.3-2.3-1.5-.9-2.6-1.5-3.3-1.7-.7-.3-2-.8-4-1.6-3.1-1.2-5.4-2.1-7.2-2.8-1.7-.7-3.8-1.8-6.4-3.3-2.5-1.5-4.4-2.9-5.7-4.5-1.3-1.5-2.5-3.5-3.5-5.9-1-2.4-1.6-5.1-1.6-8-.1-4.8.6-8.9,2.3-12.3,1.7-3.4,4-6,7-7.7,3-1.7,6.1-3,9.4-3.7,3.3-.8,6.9-1.1,10.8-1.2,7.3,0,13.5,1.8,18.7,5.6,5.2,3.8,8.1,9.6,8.9,17.4l-19,3.1c-.4-2.1-1.4-3.7-3.1-4.8-1.6-1.2-3.5-1.7-5.5-1.6-.9,0-1.7.1-2.4.3-.7.2-1.4.7-2.1,1.6-.7.8-1,1.9-.9,3.3Z"/>
      <path class="st11" d="M1099.9,359.5l-3.5,7.3h.1c-9.3,21.3-20.2,48.6-32.6,81.9-.8,2.5-1.8,5-2.8,7.7-1.1,2.6-2,5.1-2.8,7.4-.6,2-2.1,6-4.3,12.1-2.2,6.1-3.9,10.7-5,13.9-10.7-.5-18.2-3.5-22.5-8.9.3-.5.6-1.2,1-2.2.4-1,.8-2,1.2-3,.4-1,.7-1.6.8-1.9h0c2.4-5.8,5.4-14.5,9.1-26l10.8-28.7c-8.4-5.7-15.4-13.2-20.9-22.6-3-5-5.4-11-7.2-17.8-1.8-6.8-2.9-13.2-3.1-19.1,4.7-3,13.3-3.5,25.6-1.5,1.8,12,4.5,21.3,8.1,28.1,2.2,4.2,4.3,7.7,6.5,10.5,5.8-14.4,12.4-29.8,19.8-46.3,10,.9,17.3,4,21.9,9.3Z"/>
      <path class="st11" d="M1222,403.7c-.1,8-1.9,15.5-5.4,22.5h.1c-2.9,5.9-7.6,11.3-14.1,16-5.9,4.3-12.6,6.3-20.3,6.2-8.1-.1-15.3-2.5-21.7-7.2h.1c-2.3-1.6-5-5.3-7.9-11.1-2.9-5.8-4.2-11.6-3.8-17.4,0-.5,0-1.9.2-4.3.1-2.4.2-3.8.2-4.4,9.1-2.8,17.3-3,24.8-.6l-.4,8.7c-.5,5.2-.5,8.7,0,10.5.6,2,3,3.3,7.2,3.9,1.6.1,4-1.5,7.4-4.9,1.7-1.6,3.4-4.3,5.3-7.9,1.2-2.8,1.8-6.3,1.9-10.4,0-3.6-.3-5.9-.9-6.8-1.4-2-5.5-3.6-12-4.7-12-1.8-20.2-5.7-24.8-11.5-2.8-3.7-4.5-7.8-5.2-12.3-.2-1.9-.2-5.1-.2-9.7v-2.4c.2-14,3-24,8.4-30.1,6.3-6.8,15-9.8,26.2-9,12,1.2,19.8,4.2,23.6,9h-.1c4,4.8,6.1,10.2,6.4,16l-.2,15.6-24.6-.6.2-14.4c-.2-1.6-.3-2.4-.4-2.5-1.6-1.2-3.6-1.8-6.2-1.8-2.1,0-4.1,1.1-6.2,3.5-1.6,1.8-2.4,6.4-2.5,13.5,0,3.1.4,6.2,1.2,9.2.9,3.5,3.6,5.5,7.9,6.1,15.3,2.5,25.3,6.6,29.9,12.5,4.1,5.3,6,12.2,5.9,20.9Z"/>
      <path class="st11" d="M1256.1,333.3c-.3,3.7-1.9,6.8-4.9,9.1-2.9,2.4-6.4,3.5-10.3,3.4-3.6-.1-7-1.5-10-4.2-3-2.7-4.5-5.7-4.3-9.3.1-3.5,1.7-6.5,4.9-8.9,3.1-2.4,6.6-3.5,10.3-3.4,3.9.1,7.3,1.5,10,4,2.7,2.5,4.2,5.6,4.3,9.3ZM1257.5,431.2c-5.6,1-9.9,1.5-12.7,1.7-2.6,0-6.6-.7-12.2-1.9-.3-21-1.5-44.9-3.6-71.8,8.6-2.4,17-2.9,25-1.5l.7,9.3v-.3c0,.8,0,2.4.2,4.7.2,2.4.3,5.8.5,10.3.2,4.5.4,8.5.6,11.8.8,14.5,1.3,27,1.4,37.7Z"/>
      <path class="st11" d="M1336.4,406.8c-1.4,6.4-2.5,15.6-3.1,27.4-.1,1.9,0,6.1.3,12.7l-28.6-6.9c.4-2.1.8-4.4,1.2-6.9.4-2.4.6-4,.8-4.7,0,0,.5-2.8,1.4-8.2.9-5.4,1.8-9.5,2.5-12.6,1.7-7.2,2.6-13.1,2.9-17.7.2-4.4-.4-7.2-1.8-8.2-1.3,0-4,1.6-8,4.8-4.1,3.2-7.3,6.1-9.7,8.8-.1,6.1-.4,11.9-.9,17.5-1.6,16.1-2.1,25.2-1.6,27.5l-25.7.8c2.2-21.5,3.6-35.5,4-41.9.1-2.6.2-7.1.1-13.6,0-6.5-.1-12.4-.2-17.7l-.2-7.8c8.9-1.7,17-1.9,24.3-.8,0,7.9,0,12.4-.1,13.6,2.1-2.9,5.1-5.8,8.9-8.5,3.8-2.7,7.5-4.4,11-5,1.7-.2,3.7-.1,6,.2,2.3.3,4.1.8,5.5,1.5,10,5,14.6,14.5,13.8,28.5,0,.2-.9,5.9-2.7,17Z"/>
      <path class="st11" d="M1426.5,442.4v19.1c-3.5.7-7.4.9-11.5.5-4.2-.3-7.4-.8-9.7-1.4l-3.6-.9c-2.3-2.3-4.2-4.5-5.9-6.8-1.7-2.3-2.9-4.2-3.7-5.7-.8-1.5-2.3-4.3-4.4-8.4-3.9-9.1-7.4-19.9-10.5-32.4l-2.8,2.9c0,3.2,0,6.3,0,9.1,0,2.8,0,4.8,0,6,0,1.2,0,3.2-.1,6,0,2.8-.3,6.9-.7,12.3-7.3.6-15.4.1-24.1-1.3.5-8.9.7-15.1.7-18.6,0-12.1-.1-29.1-.6-51-.5-38.9-.8-60.9-.7-66.2,5.9-2.1,10.9-2.9,15-2.6,5.7.5,9.7,1.1,12.2,1.8-.9,5.1-1.6,10-2,14.6,0,6.8,0,15.9,0,27.3,0,11.4,0,19.8,0,25.2,0,2.3,0,5.4,0,9.1,3.2-2.6,7.2-6.4,12.1-11.5l18.1-19.4c6.6,6.1,12.6,13.3,18.1,21.7-8.3,5.2-13.7,8.9-16,11-1.2,1-2.7,2.2-4.6,3.6-1.9,1.4-3.5,2.7-4.7,3.7-1.2,1.1-2.4,2.4-3.5,3.8,2.9,7.6,4.4,11.6,4.4,11.9.7,1.3,2.2,5,4.7,11.1,2.4,6,4.7,10.9,6.9,14.5,2.7,4.8,5.4,7.9,8.1,9.5,2.6,1.6,5.5,2,8.8,1.3Z"/>
      <path class="st11" d="M1493.6,411.6l-42.3,2.4c2.4,9.2,9.5,14.5,21.2,16,1,.1,6.6.1,16.8,0-2.4,9.8-6.7,18.7-13.1,26.8l-10.2-3.2c-8-2.4-14.4-5.2-19-8.4h.1c-9-5.7-14.9-12.2-17.7-19.4-3.6-9.2-4.8-18.9-3.6-29.1.8-6.1,2.5-11.9,5.4-17.2,4.4-7.8,9.7-13.4,15.7-16.9,6.1-3.5,12.7-4.5,19.8-3.1h-.1c22.3,4.1,31.2,21.5,26.9,52.1ZM1451.3,395.3c1.9-.2,4.7-.3,8.4-.5,3.7-.1,6.4-.3,8.1-.3.3-5.4.2-8.8,0-10.3-.8-3-2.5-4.6-5-4.9-1.2-.2-2.6.3-4.3,1.5-1.7,1.2-3.1,2.9-4.2,5.1-1.6,3.4-2.6,6.5-2.9,9.4Z"/>
      <path class="st11" d="M1568.2,409.1c-.6,3.9-1,7.1-1.3,9.5-10.4.2-18-.1-22.7-.9l2.2-10.7c.2-1.5.2-2.7,0-3.8-.3-1.1-.9-1.6-1.8-1.6-2,.2-3.8.6-5.3,1.4-1.5.8-4,2.5-7.3,5.1l-4.4,4.7c-2.1,10.6-3.2,16.8-3.4,18.6-1.1,7.6-2.1,15.9-3,25.1l-26.7-4.9,2.1-11.6c4-18.1,6.9-33.2,8.6-45.3.8-5.6,1.6-12.3,2.1-20.1,1.8-.5,4.8-.8,9-.9,4.2,0,7.9,0,11.2,0l4.9.2-1.4,13.8c.3-.2,1.5-1,3.5-2.4,2-1.4,3.6-2.5,5-3.4,1.3-.9,2.9-1.7,4.7-2.5,1.8-.8,3.2-1.2,4.3-1.1,7,.2,12.4,3.1,16,8.8,1.7,2.4,2.9,5.8,3.6,10.3.7,4.5.7,8.4,0,11.7Z"/>
      <path class="st11" d="M1614.8,362.6c-.7,5.6-4.2,12.3-10.6,20-6.4,7.7-13.1,13.4-19.9,16.9l-8.8-13c2.3-.9,5.7-3.9,10.3-8.8,4.6-5,7-8.3,7.1-10.1v-.3c-2.7-1-4.8-3-6-6.1-1.2-3.1-1.6-6.4-1.1-9.8.5-3.7,2.2-6.7,5.1-8.8,2.9-2.2,6.5-3,10.7-2.5,4.9.5,8.6,2.5,10.9,6,2.4,3.5,3.1,9,2.1,16.6Z"/>
      <path class="st11" d="M1636.3,401.4c-.2,1.4.3,2.6,1.4,3.6,1.1,1,3.2,2.5,6.3,4.6,3.1,2,5.5,3.7,7.2,5,1.7,1.3,3.8,3.1,6.4,5.6,2.5,2.5,4.4,4.9,5.5,7.2,1.1,2.3,1.9,5.2,2.4,8.7.5,3.5.2,7.1-.8,10.9-2.1,8.2-6.9,14.1-14.3,17.7-7.4,3.6-15.8,4.2-25.2,1.7-6.5-1.7-11.6-3.9-15.4-6.7-3.8-2.8-6.3-6.1-7.4-10-1.2-3.9-1.6-8-1.2-12.1.3-4.2,1.3-9.1,3-14.7l23.6,8c-1.8,3-2.9,6.8-3.3,11.3,0,1.1.3,2.2,1.1,3.3.8,1.1,2,1.9,3.7,2.3,2.5.6,4.8.2,7.1-1.3,2.2-1.5,3.7-3.7,4.5-6.6.4-1.6.5-3.2.1-4.6-.3-1.5-1.2-2.9-2.5-4.2-1.4-1.4-2.5-2.4-3.4-3.1-.9-.7-2.5-1.8-4.6-3.3-2.8-2-5.1-3.5-6.7-4.7-1.6-1.1-3.5-2.8-5.7-4.8-2.1-2.1-3.7-4-4.7-5.8-1-1.8-1.7-3.9-2.1-6.4-.5-2.5-.3-5.1.4-7.9,1.5-5.9,4.5-10.4,9-13.5,4.6-3.1,9.4-4.7,14.6-4.9,5.1-.2,10.4.4,15.8,1.8,3.3.9,6,1.7,8,2.5,2,.8,4.1,2,6.4,3.7,2.3,1.7,3.9,3.6,4.8,5.8.9,2.2,1.5,5.2,1.7,9,.2,3.8-.3,8.3-1.4,13.3l-17.7-3.3c.7-3.6.5-6.5-.6-8.9-1.1-2.4-2.5-3.8-4.3-4.4-2.6-.8-5.1-.6-7.4.5-2.3,1.1-3.7,2.7-4,4.9Z"/>
    </g>
    <g data-animate="logo-part">
      <path class="st12" d="M812.1,450.7c-5.3,3.2-9.8,5.2-13.7,6-3.3.7-7.9.6-13.9-.1l-1.8-8.8c0-.9-.5-2.2-1.1-4.1-.7-1.8-1.1-3.1-1.3-3.9-3.7-18.1-8.4-34.8-14.1-50.1-.8,2.9-1.6,6.4-2.4,10.5-.8,4.1-1.5,8.6-2.1,13.5-.6,4.8-1.1,9-1.5,12.6-.4,3.6-.9,7.7-1.4,12.4-.5,4.7-.8,7.6-.9,8.6l-11.7,2.4-30.6-33.3c1,6.5,2.5,15.1,4.5,25.6,1.9,10.6,3.3,18.5,4.2,23.7-6.7,2.3-11.1,3.6-13.3,4.1-3.9.8-8.7.7-14.6-.1l-1.6-8.5-11.4-90.5,12.9-14.1,43.8,50.3c.4-6.6,2.4-16.8,5.9-30.4,3.5-13.7,6.6-24.1,9.2-31.2l22.4,2.8,2.5,7.6c1.6,4.4,3.4,9,5.3,14l3.6,9.5c7.6,21,14.7,42.1,21,63.2l2.2,8.4Z"/>
      <path class="st12" d="M877.8,408.8l-40.5,12.7c4.6,8.3,12.8,11.8,24.5,10.3,1-.1,6.4-1.5,16.3-4.1,0,10.1-2,19.8-6.1,29.1l-10.6-.6c-8.4-.3-15.2-1.5-20.5-3.5h.1c-10.1-3.4-17.4-8.2-21.9-14.5-5.8-8-9.3-17.1-10.6-27.3-.8-6.1-.4-12.1,1-18,2.4-8.6,6.1-15.3,11.1-20.2,5-4.8,11.2-7.5,18.5-7.9h-.1c22.6-1.4,35.5,13.2,38.8,44ZM832.9,403.3c1.8-.6,4.5-1.5,8.1-2.5,3.6-1,6.2-1.8,7.8-2.3-1.1-5.3-1.9-8.6-2.6-9.9-1.5-2.7-3.6-3.9-6.1-3.5-1.2,0-2.5.9-3.8,2.5s-2.3,3.6-2.8,5.9c-.7,3.7-.9,6.9-.5,9.9Z"/>
      <path class="st12" d="M908.4,391.7c.3,1.4,1.2,2.3,2.5,2.9,1.4.6,3.9,1.3,7.5,2.2,3.6.9,6.4,1.6,8.5,2.2,2,.6,4.7,1.7,7.9,3.2,3.2,1.5,5.8,3.2,7.6,5,1.8,1.8,3.5,4.3,5.1,7.4,1.6,3.1,2.6,6.6,2.9,10.6.7,8.4-1.8,15.6-7.6,21.4-5.8,5.9-13.5,9.2-23.2,10-6.7.6-12.2.2-16.7-1.2-4.5-1.3-8-3.7-10.4-7-2.4-3.3-4.1-7-5.2-11-1.1-4.1-1.8-9-2.1-14.9l25-.3c-.7,3.4-.5,7.3.7,11.8.3,1.1,1,2,2.2,2.8,1.2.8,2.6,1.1,4.2,1,2.5-.2,4.6-1.4,6.2-3.6,1.6-2.2,2.3-4.8,2-7.7-.1-1.7-.6-3.1-1.4-4.4-.8-1.3-2.1-2.3-3.8-3.2-1.8-.8-3.2-1.4-4.3-1.8-1.1-.4-2.9-.9-5.5-1.5-3.3-.9-6-1.6-7.9-2.1-1.9-.5-4.2-1.4-7-2.7-2.7-1.3-4.8-2.6-6.3-3.9-1.5-1.4-2.9-3.1-4.1-5.3-1.3-2.2-2-4.7-2.3-7.6-.6-6.1.7-11.3,4-15.7,3.3-4.4,7.3-7.6,12.1-9.5,4.8-1.9,9.9-3.1,15.5-3.6,3.4-.3,6.2-.4,8.3-.3,2.1,0,4.5.5,7.2,1.3,2.7.8,4.8,2.1,6.5,3.9,1.6,1.8,3.2,4.4,4.6,8,1.4,3.5,2.5,7.9,3.1,13.1l-17.8,2.8c-.5-3.6-1.7-6.3-3.5-8.2-1.8-1.9-3.7-2.8-5.6-2.7-2.8.1-5,1.1-6.9,2.9-1.8,1.8-2.5,3.8-2.2,6Z"/>
      <path class="st12" d="M975.9,365.7c0,1,.5,1.9,1.5,2.6,1,.8,2,1.3,3,1.6l1.3.4,1.3.6c1,.3,1.5.4,1.6.4,3.4,1.4,6.1,2.4,7.9,3.2,1.8.8,4.3,2.1,7.3,4,3.1,1.9,5.4,3.8,7,5.8,1.6,2,3,4.6,4.3,7.9,1.3,3.3,2,7.1,2,11.2,0,8.6-3.1,15.8-9.4,21.4-6.4,5.6-14.2,8.5-23.5,8.5-12.5,0-20.7-3.1-24.5-9.6-1.1-1.9-1.9-3.9-2.5-6.3-.6-2.3-1-5.4-1.5-9.2-.4-3.8-.8-6.6-1.1-8.2l22.2-1.9c-.2,2-.2,3.9,0,5.7.2,1.9.4,3.5.8,4.9.4,1.4,1.1,2.6,2.4,3.4,1.2.9,2.9,1.3,4.9,1.3,2.5,0,4.5-1.1,6.2-3.3,1.7-2.2,2.5-4.7,2.5-7.7,0-1.4-.3-2.7-.9-3.9-.6-1.2-1.2-2.2-1.9-2.9-.6-.7-1.7-1.5-3.3-2.3-1.5-.9-2.6-1.5-3.3-1.7-.7-.3-2-.8-4-1.6-3.1-1.2-5.4-2.1-7.2-2.8-1.7-.7-3.8-1.8-6.4-3.3-2.5-1.5-4.4-2.9-5.7-4.5-1.3-1.5-2.5-3.5-3.5-5.9-1-2.4-1.6-5.1-1.6-8-.1-4.8.6-8.9,2.3-12.3,1.7-3.4,4-6,7-7.7,3-1.7,6.1-3,9.4-3.7,3.3-.8,6.9-1.1,10.8-1.2,7.3,0,13.5,1.8,18.7,5.6,5.2,3.8,8.1,9.6,8.9,17.4l-19,3.1c-.4-2.1-1.4-3.7-3.1-4.8-1.6-1.2-3.5-1.7-5.5-1.6-.9,0-1.7.1-2.4.3-.7.2-1.4.7-2.1,1.6-.7.8-1,1.9-.9,3.3Z"/>
      <path class="st12" d="M1099.9,359.5l-3.5,7.3h.1c-9.3,21.3-20.2,48.6-32.6,81.9-.8,2.5-1.8,5-2.8,7.7-1.1,2.6-2,5.1-2.8,7.4-.6,2-2.1,6-4.3,12.1-2.2,6.1-3.9,10.7-5,13.9-10.7-.5-18.2-3.5-22.5-8.9.3-.5.6-1.2,1-2.2.4-1,.8-2,1.2-3,.4-1,.7-1.6.8-1.9h0c2.4-5.8,5.4-14.5,9.1-26l10.8-28.7c-8.4-5.7-15.4-13.2-20.9-22.6-3-5-5.4-11-7.2-17.8-1.8-6.8-2.9-13.2-3.1-19.1,4.7-3,13.3-3.5,25.6-1.5,1.8,12,4.5,21.3,8.1,28.1,2.2,4.2,4.3,7.7,6.5,10.5,5.8-14.4,12.4-29.8,19.8-46.3,10,.9,17.3,4,21.9,9.3Z"/>
      <path class="st12" d="M1222,403.7c-.1,8-1.9,15.5-5.4,22.5h.1c-2.9,5.9-7.6,11.3-14.1,16-5.9,4.3-12.6,6.3-20.3,6.2-8.1-.1-15.3-2.5-21.7-7.2h.1c-2.3-1.6-5-5.3-7.9-11.1-2.9-5.8-4.2-11.6-3.8-17.4,0-.5,0-1.9.2-4.3.1-2.4.2-3.8.2-4.4,9.1-2.8,17.3-3,24.8-.6l-.4,8.7c-.5,5.2-.5,8.7,0,10.5.6,2,3,3.3,7.2,3.9,1.6.1,4-1.5,7.4-4.9,1.7-1.6,3.4-4.3,5.3-7.9,1.2-2.8,1.8-6.3,1.9-10.4,0-3.6-.3-5.9-.9-6.8-1.4-2-5.5-3.6-12-4.7-12-1.8-20.2-5.7-24.8-11.5-2.8-3.7-4.5-7.8-5.2-12.3-.2-1.9-.2-5.1-.2-9.7v-2.4c.2-14,3-24,8.4-30.1,6.3-6.8,15-9.8,26.2-9,12,1.2,19.8,4.2,23.6,9h-.1c4,4.8,6.1,10.2,6.4,16l-.2,15.6-24.6-.6.2-14.4c-.2-1.6-.3-2.4-.4-2.5-1.6-1.2-3.6-1.8-6.2-1.8-2.1,0-4.1,1.1-6.2,3.5-1.6,1.8-2.4,6.4-2.5,13.5,0,3.1.4,6.2,1.2,9.2.9,3.5,3.6,5.5,7.9,6.1,15.3,2.5,25.3,6.6,29.9,12.5,4.1,5.3,6,12.2,5.9,20.9Z"/>
      <path class="st12" d="M1256.1,333.3c-.3,3.7-1.9,6.8-4.9,9.1-2.9,2.4-6.4,3.5-10.3,3.4-3.6-.1-7-1.5-10-4.2-3-2.7-4.5-5.7-4.3-9.3.1-3.5,1.7-6.5,4.9-8.9,3.1-2.4,6.6-3.5,10.3-3.4,3.9.1,7.3,1.5,10,4,2.7,2.5,4.2,5.6,4.3,9.3ZM1257.5,431.2c-5.6,1-9.9,1.5-12.7,1.7-2.6,0-6.6-.7-12.2-1.9-.3-21-1.5-44.9-3.6-71.8,8.6-2.4,17-2.9,25-1.5l.7,9.3v-.3c0,.8,0,2.4.2,4.7.2,2.4.3,5.8.5,10.3.2,4.5.4,8.5.6,11.8.8,14.5,1.3,27,1.4,37.7Z"/>
      <path class="st12" d="M1336.4,406.8c-1.4,6.4-2.5,15.6-3.1,27.4-.1,1.9,0,6.1.3,12.7l-28.6-6.9c.4-2.1.8-4.4,1.2-6.9.4-2.4.6-4,.8-4.7,0,0,.5-2.8,1.4-8.2.9-5.4,1.8-9.5,2.5-12.6,1.7-7.2,2.6-13.1,2.9-17.7.2-4.4-.4-7.2-1.8-8.2-1.3,0-4,1.6-8,4.8-4.1,3.2-7.3,6.1-9.7,8.8-.1,6.1-.4,11.9-.9,17.5-1.6,16.1-2.1,25.2-1.6,27.5l-25.7.8c2.2-21.5,3.6-35.5,4-41.9.1-2.6.2-7.1.1-13.6,0-6.5-.1-12.4-.2-17.7l-.2-7.8c8.9-1.7,17-1.9,24.3-.8,0,7.9,0,12.4-.1,13.6,2.1-2.9,5.1-5.8,8.9-8.5,3.8-2.7,7.5-4.4,11-5,1.7-.2,3.7-.1,6,.2,2.3.3,4.1.8,5.5,1.5,10,5,14.6,14.5,13.8,28.5,0,.2-.9,5.9-2.7,17Z"/>
      <path class="st12" d="M1426.5,442.4v19.1c-3.5.7-7.4.9-11.5.5-4.2-.3-7.4-.8-9.7-1.4l-3.6-.9c-2.3-2.3-4.2-4.5-5.9-6.8-1.7-2.3-2.9-4.2-3.7-5.7-.8-1.5-2.3-4.3-4.4-8.4-3.9-9.1-7.4-19.9-10.5-32.4l-2.8,2.9c0,3.2,0,6.3,0,9.1,0,2.8,0,4.8,0,6,0,1.2,0,3.2-.1,6,0,2.8-.3,6.9-.7,12.3-7.3.6-15.4.1-24.1-1.3.5-8.9.7-15.1.7-18.6,0-12.1-.1-29.1-.6-51-.5-38.9-.8-60.9-.7-66.2,5.9-2.1,10.9-2.9,15-2.6,5.7.5,9.7,1.1,12.2,1.8-.9,5.1-1.6,10-2,14.6,0,6.8,0,15.9,0,27.3,0,11.4,0,19.8,0,25.2,0,2.3,0,5.4,0,9.1,3.2-2.6,7.2-6.4,12.1-11.5l18.1-19.4c6.6,6.1,12.6,13.3,18.1,21.7-8.3,5.2-13.7,8.9-16,11-1.2,1-2.7,2.2-4.6,3.6-1.9,1.4-3.5,2.7-4.7,3.7-1.2,1.1-2.4,2.4-3.5,3.8,2.9,7.6,4.4,11.6,4.4,11.9.7,1.3,2.2,5,4.7,11.1,2.4,6,4.7,10.9,6.9,14.5,2.7,4.8,5.4,7.9,8.1,9.5,2.6,1.6,5.5,2,8.8,1.3Z"/>
      <path class="st12" d="M1493.6,411.6l-42.3,2.4c2.4,9.2,9.5,14.5,21.2,16,1,.1,6.6.1,16.8,0-2.4,9.8-6.7,18.7-13.1,26.8l-10.2-3.2c-8-2.4-14.4-5.2-19-8.4h.1c-9-5.7-14.9-12.2-17.7-19.4-3.6-9.2-4.8-18.9-3.6-29.1.8-6.1,2.5-11.9,5.4-17.2,4.4-7.8,9.7-13.4,15.7-16.9,6.1-3.5,12.7-4.5,19.8-3.1h-.1c22.3,4.1,31.2,21.5,26.9,52.1ZM1451.3,395.3c1.9-.2,4.7-.3,8.4-.5,3.7-.1,6.4-.3,8.1-.3.3-5.4.2-8.8,0-10.3-.8-3-2.5-4.6-5-4.9-1.2-.2-2.6.3-4.3,1.5-1.7,1.2-3.1,2.9-4.2,5.1-1.6,3.4-2.6,6.5-2.9,9.4Z"/>
      <path class="st12" d="M1568.2,409.1c-.6,3.9-1,7.1-1.3,9.5-10.4.2-18-.1-22.7-.9l2.2-10.7c.2-1.5.2-2.7,0-3.8-.3-1.1-.9-1.6-1.8-1.6-2,.2-3.8.6-5.3,1.4-1.5.8-4,2.5-7.3,5.1l-4.4,4.7c-2.1,10.6-3.2,16.8-3.4,18.6-1.1,7.6-2.1,15.9-3,25.1l-26.7-4.9,2.1-11.6c4-18.1,6.9-33.2,8.6-45.3.8-5.6,1.6-12.3,2.1-20.1,1.8-.5,4.8-.8,9-.9,4.2,0,7.9,0,11.2,0l4.9.2-1.4,13.8c.3-.2,1.5-1,3.5-2.4,2-1.4,3.6-2.5,5-3.4,1.3-.9,2.9-1.7,4.7-2.5,1.8-.8,3.2-1.2,4.3-1.1,7,.2,12.4,3.1,16,8.8,1.7,2.4,2.9,5.8,3.6,10.3.7,4.5.7,8.4,0,11.7Z"/>
      <path class="st12" d="M1614.8,362.6c-.7,5.6-4.2,12.3-10.6,20-6.4,7.7-13.1,13.4-19.9,16.9l-8.8-13c2.3-.9,5.7-3.9,10.3-8.8,4.6-5,7-8.3,7.1-10.1v-.3c-2.7-1-4.8-3-6-6.1-1.2-3.1-1.6-6.4-1.1-9.8.5-3.7,2.2-6.7,5.1-8.8,2.9-2.2,6.5-3,10.7-2.5,4.9.5,8.6,2.5,10.9,6,2.4,3.5,3.1,9,2.1,16.6Z"/>
      <path class="st12" d="M1636.3,401.4c-.2,1.4.3,2.6,1.4,3.6,1.1,1,3.2,2.5,6.3,4.6,3.1,2,5.5,3.7,7.2,5,1.7,1.3,3.8,3.1,6.4,5.6,2.5,2.5,4.4,4.9,5.5,7.2,1.1,2.3,1.9,5.2,2.4,8.7.5,3.5.2,7.1-.8,10.9-2.1,8.2-6.9,14.1-14.3,17.7-7.4,3.6-15.8,4.2-25.2,1.7-6.5-1.7-11.6-3.9-15.4-6.7-3.8-2.8-6.3-6.1-7.4-10-1.2-3.9-1.6-8-1.2-12.1.3-4.2,1.3-9.1,3-14.7l23.6,8c-1.8,3-2.9,6.8-3.3,11.3,0,1.1.3,2.2,1.1,3.3.8,1.1,2,1.9,3.7,2.3,2.5.6,4.8.2,7.1-1.3,2.2-1.5,3.7-3.7,4.5-6.6.4-1.6.5-3.2.1-4.6-.3-1.5-1.2-2.9-2.5-4.2-1.4-1.4-2.5-2.4-3.4-3.1-.9-.7-2.5-1.8-4.6-3.3-2.8-2-5.1-3.5-6.7-4.7-1.6-1.1-3.5-2.8-5.7-4.8-2.1-2.1-3.7-4-4.7-5.8-1-1.8-1.7-3.9-2.1-6.4-.5-2.5-.3-5.1.4-7.9,1.5-5.9,4.5-10.4,9-13.5,4.6-3.1,9.4-4.7,14.6-4.9,5.1-.2,10.4.4,15.8,1.8,3.3.9,6,1.7,8,2.5,2,.8,4.1,2,6.4,3.7,2.3,1.7,3.9,3.6,4.8,5.8.9,2.2,1.5,5.2,1.7,9,.2,3.8-.3,8.3-1.4,13.3l-17.7-3.3c.7-3.6.5-6.5-.6-8.9-1.1-2.4-2.5-3.8-4.3-4.4-2.6-.8-5.1-.6-7.4.5-2.3,1.1-3.7,2.7-4,4.9Z"/>
    </g>
    <g data-animate="logo-part">
      <path class="st21" d="M812.1,450.7c-5.3,3.2-9.8,5.2-13.7,6-3.3.7-7.9.6-13.9-.1l-1.8-8.8c0-.9-.5-2.2-1.1-4.1-.7-1.8-1.1-3.1-1.3-3.9-3.7-18.1-8.4-34.8-14.1-50.1-.8,2.9-1.6,6.4-2.4,10.5-.8,4.1-1.5,8.6-2.1,13.5-.6,4.8-1.1,9-1.5,12.6-.4,3.6-.9,7.7-1.4,12.4-.5,4.7-.8,7.6-.9,8.6l-11.7,2.4-30.6-33.3c1,6.5,2.5,15.1,4.5,25.6,1.9,10.6,3.3,18.5,4.2,23.7-6.7,2.3-11.1,3.6-13.3,4.1-3.9.8-8.7.7-14.6-.1l-1.6-8.5-11.4-90.5,12.9-14.1,43.8,50.3c.4-6.6,2.4-16.8,5.9-30.4,3.5-13.7,6.6-24.1,9.2-31.2l22.4,2.8,2.5,7.6c1.6,4.4,3.4,9,5.3,14l3.6,9.5c7.6,21,14.7,42.1,21,63.2l2.2,8.4Z"/>
      <path class="st21" d="M877.8,408.8l-40.5,12.7c4.6,8.3,12.8,11.8,24.5,10.3,1-.1,6.4-1.5,16.3-4.1,0,10.1-2,19.8-6.1,29.1l-10.6-.6c-8.4-.3-15.2-1.5-20.5-3.5h.1c-10.1-3.4-17.4-8.2-21.9-14.5-5.8-8-9.3-17.1-10.6-27.3-.8-6.1-.4-12.1,1-18,2.4-8.6,6.1-15.3,11.1-20.2,5-4.8,11.2-7.5,18.5-7.9h-.1c22.6-1.4,35.5,13.2,38.8,44ZM832.9,403.3c1.8-.6,4.5-1.5,8.1-2.5,3.6-1,6.2-1.8,7.8-2.3-1.1-5.3-1.9-8.6-2.6-9.9-1.5-2.7-3.6-3.9-6.1-3.5-1.2,0-2.5.9-3.8,2.5s-2.3,3.6-2.8,5.9c-.7,3.7-.9,6.9-.5,9.9Z"/>
      <path class="st21" d="M908.4,391.7c.3,1.4,1.2,2.3,2.5,2.9,1.4.6,3.9,1.3,7.5,2.2,3.6.9,6.4,1.6,8.5,2.2,2,.6,4.7,1.7,7.9,3.2,3.2,1.5,5.8,3.2,7.6,5,1.8,1.8,3.5,4.3,5.1,7.4,1.6,3.1,2.6,6.6,2.9,10.6.7,8.4-1.8,15.6-7.6,21.4-5.8,5.9-13.5,9.2-23.2,10-6.7.6-12.2.2-16.7-1.2-4.5-1.3-8-3.7-10.4-7-2.4-3.3-4.1-7-5.2-11-1.1-4.1-1.8-9-2.1-14.9l25-.3c-.7,3.4-.5,7.3.7,11.8.3,1.1,1,2,2.2,2.8,1.2.8,2.6,1.1,4.2,1,2.5-.2,4.6-1.4,6.2-3.6,1.6-2.2,2.3-4.8,2-7.7-.1-1.7-.6-3.1-1.4-4.4-.8-1.3-2.1-2.3-3.8-3.2-1.8-.8-3.2-1.4-4.3-1.8-1.1-.4-2.9-.9-5.5-1.5-3.3-.9-6-1.6-7.9-2.1-1.9-.5-4.2-1.4-7-2.7-2.7-1.3-4.8-2.6-6.3-3.9-1.5-1.4-2.9-3.1-4.1-5.3-1.3-2.2-2-4.7-2.3-7.6-.6-6.1.7-11.3,4-15.7,3.3-4.4,7.3-7.6,12.1-9.5,4.8-1.9,9.9-3.1,15.5-3.6,3.4-.3,6.2-.4,8.3-.3,2.1,0,4.5.5,7.2,1.3,2.7.8,4.8,2.1,6.5,3.9,1.6,1.8,3.2,4.4,4.6,8,1.4,3.5,2.5,7.9,3.1,13.1l-17.8,2.8c-.5-3.6-1.7-6.3-3.5-8.2-1.8-1.9-3.7-2.8-5.6-2.7-2.8.1-5,1.1-6.9,2.9-1.8,1.8-2.5,3.8-2.2,6Z"/>
      <path class="st21" d="M975.9,365.7c0,1,.5,1.9,1.5,2.6,1,.8,2,1.3,3,1.6l1.3.4,1.3.6c1,.3,1.5.4,1.6.4,3.4,1.4,6.1,2.4,7.9,3.2,1.8.8,4.3,2.1,7.3,4,3.1,1.9,5.4,3.8,7,5.8,1.6,2,3,4.6,4.3,7.9,1.3,3.3,2,7.1,2,11.2,0,8.6-3.1,15.8-9.4,21.4-6.4,5.6-14.2,8.5-23.5,8.5-12.5,0-20.7-3.1-24.5-9.6-1.1-1.9-1.9-3.9-2.5-6.3-.6-2.3-1-5.4-1.5-9.2-.4-3.8-.8-6.6-1.1-8.2l22.2-1.9c-.2,2-.2,3.9,0,5.7.2,1.9.4,3.5.8,4.9.4,1.4,1.1,2.6,2.4,3.4,1.2.9,2.9,1.3,4.9,1.3,2.5,0,4.5-1.1,6.2-3.3,1.7-2.2,2.5-4.7,2.5-7.7,0-1.4-.3-2.7-.9-3.9-.6-1.2-1.2-2.2-1.9-2.9-.6-.7-1.7-1.5-3.3-2.3-1.5-.9-2.6-1.5-3.3-1.7-.7-.3-2-.8-4-1.6-3.1-1.2-5.4-2.1-7.2-2.8-1.7-.7-3.8-1.8-6.4-3.3-2.5-1.5-4.4-2.9-5.7-4.5-1.3-1.5-2.5-3.5-3.5-5.9-1-2.4-1.6-5.1-1.6-8-.1-4.8.6-8.9,2.3-12.3,1.7-3.4,4-6,7-7.7,3-1.7,6.1-3,9.4-3.7,3.3-.8,6.9-1.1,10.8-1.2,7.3,0,13.5,1.8,18.7,5.6,5.2,3.8,8.1,9.6,8.9,17.4l-19,3.1c-.4-2.1-1.4-3.7-3.1-4.8-1.6-1.2-3.5-1.7-5.5-1.6-.9,0-1.7.1-2.4.3-.7.2-1.4.7-2.1,1.6-.7.8-1,1.9-.9,3.3Z"/>
      <path class="st21" d="M1099.9,359.5l-3.5,7.3h.1c-9.3,21.3-20.2,48.6-32.6,81.9-.8,2.5-1.8,5-2.8,7.7-1.1,2.6-2,5.1-2.8,7.4-.6,2-2.1,6-4.3,12.1-2.2,6.1-3.9,10.7-5,13.9-10.7-.5-18.2-3.5-22.5-8.9.3-.5.6-1.2,1-2.2.4-1,.8-2,1.2-3,.4-1,.7-1.6.8-1.9h0c2.4-5.8,5.4-14.5,9.1-26l10.8-28.7c-8.4-5.7-15.4-13.2-20.9-22.6-3-5-5.4-11-7.2-17.8-1.8-6.8-2.9-13.2-3.1-19.1,4.7-3,13.3-3.5,25.6-1.5,1.8,12,4.5,21.3,8.1,28.1,2.2,4.2,4.3,7.7,6.5,10.5,5.8-14.4,12.4-29.8,19.8-46.3,10,.9,17.3,4,21.9,9.3Z"/>
      <path class="st21" d="M1222,403.7c-.1,8-1.9,15.5-5.4,22.5h.1c-2.9,5.9-7.6,11.3-14.1,16-5.9,4.3-12.6,6.3-20.3,6.2-8.1-.1-15.3-2.5-21.7-7.2h.1c-2.3-1.6-5-5.3-7.9-11.1-2.9-5.8-4.2-11.6-3.8-17.4,0-.5,0-1.9.2-4.3.1-2.4.2-3.8.2-4.4,9.1-2.8,17.3-3,24.8-.6l-.4,8.7c-.5,5.2-.5,8.7,0,10.5.6,2,3,3.3,7.2,3.9,1.6.1,4-1.5,7.4-4.9,1.7-1.6,3.4-4.3,5.3-7.9,1.2-2.8,1.8-6.3,1.9-10.4,0-3.6-.3-5.9-.9-6.8-1.4-2-5.5-3.6-12-4.7-12-1.8-20.2-5.7-24.8-11.5-2.8-3.7-4.5-7.8-5.2-12.3-.2-1.9-.2-5.1-.2-9.7v-2.4c.2-14,3-24,8.4-30.1,6.3-6.8,15-9.8,26.2-9,12,1.2,19.8,4.2,23.6,9h-.1c4,4.8,6.1,10.2,6.4,16l-.2,15.6-24.6-.6.2-14.4c-.2-1.6-.3-2.4-.4-2.5-1.6-1.2-3.6-1.8-6.2-1.8-2.1,0-4.1,1.1-6.2,3.5-1.6,1.8-2.4,6.4-2.5,13.5,0,3.1.4,6.2,1.2,9.2.9,3.5,3.6,5.5,7.9,6.1,15.3,2.5,25.3,6.6,29.9,12.5,4.1,5.3,6,12.2,5.9,20.9Z"/>
      <path class="st21" d="M1256.1,333.3c-.3,3.7-1.9,6.8-4.9,9.1-2.9,2.4-6.4,3.5-10.3,3.4-3.6-.1-7-1.5-10-4.2-3-2.7-4.5-5.7-4.3-9.3.1-3.5,1.7-6.5,4.9-8.9,3.1-2.4,6.6-3.5,10.3-3.4,3.9.1,7.3,1.5,10,4,2.7,2.5,4.2,5.6,4.3,9.3ZM1257.5,431.2c-5.6,1-9.9,1.5-12.7,1.7-2.6,0-6.6-.7-12.2-1.9-.3-21-1.5-44.9-3.6-71.8,8.6-2.4,17-2.9,25-1.5l.7,9.3v-.3c0,.8,0,2.4.2,4.7.2,2.4.3,5.8.5,10.3.2,4.5.4,8.5.6,11.8.8,14.5,1.3,27,1.4,37.7Z"/>
      <path class="st21" d="M1336.4,406.8c-1.4,6.4-2.5,15.6-3.1,27.4-.1,1.9,0,6.1.3,12.7l-28.6-6.9c.4-2.1.8-4.4,1.2-6.9.4-2.4.6-4,.8-4.7,0,0,.5-2.8,1.4-8.2.9-5.4,1.8-9.5,2.5-12.6,1.7-7.2,2.6-13.1,2.9-17.7.2-4.4-.4-7.2-1.8-8.2-1.3,0-4,1.6-8,4.8-4.1,3.2-7.3,6.1-9.7,8.8-.1,6.1-.4,11.9-.9,17.5-1.6,16.1-2.1,25.2-1.6,27.5l-25.7.8c2.2-21.5,3.6-35.5,4-41.9.1-2.6.2-7.1.1-13.6,0-6.5-.1-12.4-.2-17.7l-.2-7.8c8.9-1.7,17-1.9,24.3-.8,0,7.9,0,12.4-.1,13.6,2.1-2.9,5.1-5.8,8.9-8.5,3.8-2.7,7.5-4.4,11-5,1.7-.2,3.7-.1,6,.2,2.3.3,4.1.8,5.5,1.5,10,5,14.6,14.5,13.8,28.5,0,.2-.9,5.9-2.7,17Z"/>
      <path class="st21" d="M1426.5,442.4v19.1c-3.5.7-7.4.9-11.5.5-4.2-.3-7.4-.8-9.7-1.4l-3.6-.9c-2.3-2.3-4.2-4.5-5.9-6.8-1.7-2.3-2.9-4.2-3.7-5.7-.8-1.5-2.3-4.3-4.4-8.4-3.9-9.1-7.4-19.9-10.5-32.4l-2.8,2.9c0,3.2,0,6.3,0,9.1,0,2.8,0,4.8,0,6,0,1.2,0,3.2-.1,6,0,2.8-.3,6.9-.7,12.3-7.3.6-15.4.1-24.1-1.3.5-8.9.7-15.1.7-18.6,0-12.1-.1-29.1-.6-51-.5-38.9-.8-60.9-.7-66.2,5.9-2.1,10.9-2.9,15-2.6,5.7.5,9.7,1.1,12.2,1.8-.9,5.1-1.6,10-2,14.6,0,6.8,0,15.9,0,27.3,0,11.4,0,19.8,0,25.2,0,2.3,0,5.4,0,9.1,3.2-2.6,7.2-6.4,12.1-11.5l18.1-19.4c6.6,6.1,12.6,13.3,18.1,21.7-8.3,5.2-13.7,8.9-16,11-1.2,1-2.7,2.2-4.6,3.6-1.9,1.4-3.5,2.7-4.7,3.7-1.2,1.1-2.4,2.4-3.5,3.8,2.9,7.6,4.4,11.6,4.4,11.9.7,1.3,2.2,5,4.7,11.1,2.4,6,4.7,10.9,6.9,14.5,2.7,4.8,5.4,7.9,8.1,9.5,2.6,1.6,5.5,2,8.8,1.3Z"/>
      <path class="st21" d="M1493.6,411.6l-42.3,2.4c2.4,9.2,9.5,14.5,21.2,16,1,.1,6.6.1,16.8,0-2.4,9.8-6.7,18.7-13.1,26.8l-10.2-3.2c-8-2.4-14.4-5.2-19-8.4h.1c-9-5.7-14.9-12.2-17.7-19.4-3.6-9.2-4.8-18.9-3.6-29.1.8-6.1,2.5-11.9,5.4-17.2,4.4-7.8,9.7-13.4,15.7-16.9,6.1-3.5,12.7-4.5,19.8-3.1h-.1c22.3,4.1,31.2,21.5,26.9,52.1ZM1451.3,395.3c1.9-.2,4.7-.3,8.4-.5,3.7-.1,6.4-.3,8.1-.3.3-5.4.2-8.8,0-10.3-.8-3-2.5-4.6-5-4.9-1.2-.2-2.6.3-4.3,1.5-1.7,1.2-3.1,2.9-4.2,5.1-1.6,3.4-2.6,6.5-2.9,9.4Z"/>
      <path class="st21" d="M1568.2,409.1c-.6,3.9-1,7.1-1.3,9.5-10.4.2-18-.1-22.7-.9l2.2-10.7c.2-1.5.2-2.7,0-3.8-.3-1.1-.9-1.6-1.8-1.6-2,.2-3.8.6-5.3,1.4-1.5.8-4,2.5-7.3,5.1l-4.4,4.7c-2.1,10.6-3.2,16.8-3.4,18.6-1.1,7.6-2.1,15.9-3,25.1l-26.7-4.9,2.1-11.6c4-18.1,6.9-33.2,8.6-45.3.8-5.6,1.6-12.3,2.1-20.1,1.8-.5,4.8-.8,9-.9,4.2,0,7.9,0,11.2,0l4.9.2-1.4,13.8c.3-.2,1.5-1,3.5-2.4,2-1.4,3.6-2.5,5-3.4,1.3-.9,2.9-1.7,4.7-2.5,1.8-.8,3.2-1.2,4.3-1.1,7,.2,12.4,3.1,16,8.8,1.7,2.4,2.9,5.8,3.6,10.3.7,4.5.7,8.4,0,11.7Z"/>
      <path class="st21" d="M1614.8,362.6c-.7,5.6-4.2,12.3-10.6,20-6.4,7.7-13.1,13.4-19.9,16.9l-8.8-13c2.3-.9,5.7-3.9,10.3-8.8,4.6-5,7-8.3,7.1-10.1v-.3c-2.7-1-4.8-3-6-6.1-1.2-3.1-1.6-6.4-1.1-9.8.5-3.7,2.2-6.7,5.1-8.8,2.9-2.2,6.5-3,10.7-2.5,4.9.5,8.6,2.5,10.9,6,2.4,3.5,3.1,9,2.1,16.6Z"/>
      <path class="st21" d="M1636.3,401.4c-.2,1.4.3,2.6,1.4,3.6,1.1,1,3.2,2.5,6.3,4.6,3.1,2,5.5,3.7,7.2,5,1.7,1.3,3.8,3.1,6.4,5.6,2.5,2.5,4.4,4.9,5.5,7.2,1.1,2.3,1.9,5.2,2.4,8.7.5,3.5.2,7.1-.8,10.9-2.1,8.2-6.9,14.1-14.3,17.7-7.4,3.6-15.8,4.2-25.2,1.7-6.5-1.7-11.6-3.9-15.4-6.7-3.8-2.8-6.3-6.1-7.4-10-1.2-3.9-1.6-8-1.2-12.1.3-4.2,1.3-9.1,3-14.7l23.6,8c-1.8,3-2.9,6.8-3.3,11.3,0,1.1.3,2.2,1.1,3.3.8,1.1,2,1.9,3.7,2.3,2.5.6,4.8.2,7.1-1.3,2.2-1.5,3.7-3.7,4.5-6.6.4-1.6.5-3.2.1-4.6-.3-1.5-1.2-2.9-2.5-4.2-1.4-1.4-2.5-2.4-3.4-3.1-.9-.7-2.5-1.8-4.6-3.3-2.8-2-5.1-3.5-6.7-4.7-1.6-1.1-3.5-2.8-5.7-4.8-2.1-2.1-3.7-4-4.7-5.8-1-1.8-1.7-3.9-2.1-6.4-.5-2.5-.3-5.1.4-7.9,1.5-5.9,4.5-10.4,9-13.5,4.6-3.1,9.4-4.7,14.6-4.9,5.1-.2,10.4.4,15.8,1.8,3.3.9,6,1.7,8,2.5,2,.8,4.1,2,6.4,3.7,2.3,1.7,3.9,3.6,4.8,5.8.9,2.2,1.5,5.2,1.7,9,.2,3.8-.3,8.3-1.4,13.3l-17.7-3.3c.7-3.6.5-6.5-.6-8.9-1.1-2.4-2.5-3.8-4.3-4.4-2.6-.8-5.1-.6-7.4.5-2.3,1.1-3.7,2.7-4,4.9Z"/>
    </g>
  </g>
</svg>