<?xml version="1.0" encoding="UTF-8" standalone="no"?>
<svg xmlns:ffdec="https://www.free-decompiler.com/flash" xmlns:xlink="http://www.w3.org/1999/xlink" ffdec:objectType="frame" height="82.4px" width="80.4px" xmlns="http://www.w3.org/2000/svg">
  <g transform="matrix(1.0, 0.0, 0.0, 1.0, 40.2, 39.0)">
    <use ffdec:characterId="38" height="80.4" transform="matrix(1.0, 0.0, 0.0, 1.0, -40.2, -37.0)" width="80.4" xlink:href="#shape0"/>
    <use ffdec:characterId="39" height="77.95" transform="matrix(1.0, 0.0, 0.0, 1.0, -38.95, -36.0)" width="77.9" xlink:href="#shape1"/>
    <use ffdec:characterId="40" height="75.95" transform="matrix(1.0, 0.0, 0.0, 1.0, -37.95, -35.0)" width="75.9" xlink:href="#shape2"/>
    <use ffdec:characterId="42" height="72.75" transform="matrix(1.0, 0.0, 0.0, 1.0, -36.4, -33.4)" width="72.8" xlink:href="#shape3"/>
  </g>
  <defs>
    <g id="shape0" transform="matrix(1.0, 0.0, 0.0, 1.0, 40.2, 37.0)">
      <path d="M-28.4 -25.2 Q-16.65 -37.0 0.0 -37.0 16.65 -37.0 28.45 -25.2 40.2 -13.45 40.2 3.2 40.2 19.85 28.45 31.65 16.65 43.4 0.0 43.4 -16.65 43.4 -28.4 31.65 -40.2 19.85 -40.2 3.2 -40.2 -13.45 -28.4 -25.2" fill="#000000" fill-opacity="0.14901961" fill-rule="evenodd" stroke="none"/>
    </g>
    <g id="shape1" transform="matrix(1.0, 0.0, 0.0, 1.0, 38.95, 36.0)">
      <path d="M26.85 -23.85 Q15.7 -35.0 0.0 -35.0 -15.75 -35.0 -26.85 -23.85 -37.95 -12.75 -37.95 3.0 -37.95 18.7 -26.85 29.85 -15.75 40.95 0.0 40.95 15.7 40.95 26.85 29.85 37.95 18.7 37.95 3.0 37.95 -12.75 26.85 -23.85 Z" fill="none" stroke="#000000" stroke-linecap="butt" stroke-linejoin="miter-clip" stroke-miterlimit="4.0" stroke-opacity="0.29803923" stroke-width="2.0"/>
    </g>
    <g id="shape2" transform="matrix(1.0, 0.0, 0.0, 1.0, 37.95, 38.0)">
      <path d="M0.0 -38.0 Q15.7 -38.0 26.85 -26.85 37.95 -15.75 37.95 0.0 37.95 15.7 26.85 26.85 15.7 37.95 0.0 37.95 -15.75 37.95 -26.85 26.85 -37.95 15.7 -37.95 0.0 -37.95 -15.75 -26.85 -26.85 -15.75 -38.0 0.0 -38.0" fill="#de5e17" fill-rule="evenodd" stroke="none"/>
    </g>
    <g id="shape3" transform="matrix(1.0, 0.0, 0.0, 1.0, 36.4, 33.4)">
      <path d="M35.4 3.0 Q35.4 17.6 25.0 28.0 14.65 38.35 0.0 38.35 -14.65 38.35 -25.05 28.0 -35.4 17.65 -35.4 3.0 -35.4 -11.65 -25.05 -22.05 -14.65 -32.4 0.0 -32.4 14.65 -32.4 25.0 -22.05 35.4 -11.65 35.4 3.0 Z" fill="none" stroke="#ffffff" stroke-linecap="butt" stroke-linejoin="miter-clip" stroke-miterlimit="4.0" stroke-opacity="0.29803923" stroke-width="2.0"/>
      <path d="M20.25 -24.3 Q28.65 -17.15 28.65 -7.0 28.65 3.15 20.25 10.3 11.9 17.45 0.0 17.45 -11.9 17.45 -20.3 10.3 -28.7 3.15 -28.7 -7.0 -28.7 -17.1 -20.3 -24.3 -11.9 -31.45 0.0 -31.45 11.9 -31.45 20.25 -24.3" fill="url(#gradient0)" fill-rule="evenodd" stroke="none"/>
      <path d="M10.9 -13.85 Q12.15 -15.1 13.85 -15.1 15.6 -15.1 16.8 -13.85 18.05 -12.65 18.05 -10.9 18.05 -9.2 16.8 -7.95 L5.85 3.0 16.8 13.9 Q18.05 15.15 18.05 16.85 18.05 18.6 16.8 19.8 15.6 21.05 13.85 21.05 12.15 21.05 10.9 19.8 L-0.05 8.85 -11.0 19.8 Q-12.2 21.05 -13.9 21.05 -15.65 21.05 -16.85 19.8 -18.1 18.6 -18.1 16.85 -18.1 15.15 -16.85 13.9 L-5.9 3.0 -16.85 -7.95 Q-18.1 -9.2 -18.1 -10.9 -18.1 -12.65 -16.85 -13.85 -15.65 -15.1 -13.9 -15.1 -12.2 -15.1 -11.0 -13.85 L-0.05 -2.9 10.9 -13.85" fill="#ffffff" fill-rule="evenodd" stroke="none"/>
      <path d="M10.9 -13.85 L-0.05 -2.9 -11.0 -13.85 Q-12.2 -15.1 -13.9 -15.1 -15.65 -15.1 -16.85 -13.85 -18.1 -12.65 -18.1 -10.9 -18.1 -9.2 -16.85 -7.95 L-5.9 3.0 -16.85 13.9 Q-18.1 15.15 -18.1 16.85 -18.1 18.6 -16.85 19.8 -15.65 21.05 -13.9 21.05 -12.2 21.05 -11.0 19.8 L-0.05 8.85 10.9 19.8 Q12.15 21.05 13.85 21.05 15.6 21.05 16.8 19.8 18.05 18.6 18.05 16.85 18.05 15.15 16.8 13.9 L5.85 3.0 16.8 -7.95 Q18.05 -9.2 18.05 -10.9 18.05 -12.65 16.8 -13.85 15.6 -15.1 13.85 -15.1 12.15 -15.1 10.9 -13.85 Z" fill="none" stroke="#000000" stroke-linecap="butt" stroke-linejoin="miter-clip" stroke-miterlimit="4.0" stroke-opacity="0.29803923" stroke-width="1.8"/>
    </g>
    <linearGradient gradientTransform="matrix(0.0, 0.0278, 0.0278, 0.0, 0.0, -8.7)" gradientUnits="userSpaceOnUse" id="gradient0" spreadMethod="pad" x1="-819.2" x2="819.2">
      <stop offset="0.0" stop-color="#ffffff" stop-opacity="0.49803922"/>
      <stop offset="1.0" stop-color="#ffffff" stop-opacity="0.0"/>
    </linearGradient>
  </defs>
</svg>
