<?xml version="1.0" encoding="UTF-8"?>
<svg id="Layer_1" xmlns="http://www.w3.org/2000/svg" version="1.1" viewBox="0 0 5313.5 3393.8">
  <!-- Generator: Adobe Illustrator 29.7.1, SVG Export Plug-In . SVG Version: 2.1.1 Build 8)  -->
  <defs>
    <style>
      .st0 {
        fill: none;
      }
    </style>
  </defs>
  <g id="Layer_2">
    <g id="Layer_1-2">
      <path class="st0" d="M3193.3,1622.7c0-333.9,31.6-670,51.5-848.8,6.4-57.5-50-101.6-104.3-81.6-135.8,50.1-371.9,120.1-631.2,120.3-259.3-.2-495.4-70.2-631.2-120.3-54.3-20-110.7,24.1-104.3,81.6,19.9,178.7,51.4,514.9,51.4,848.8,0,487.7-67.3,862.6-67.3,862.6,0,0,291.7-38.6,751.3-38.8,459.6.2,751.3,38.8,751.3,38.8,0,0-67.3-375-67.3-862.6h0Z"/>
    </g>
  </g>
</svg>